<svg viewBox="0 0 330 200" xmlns="http://www.w3.org/2000/svg"><g><g><g><g><g><line x1="40" y1="173.19747373017955" x2="35" y2="173.19747373017955" style="visibility: inherit;" fill="rgb(0, 0, 0)" stroke="rgb(204, 204, 204)" stroke-width="1px"></line><line x1="40" y1="155.39747373017954" x2="35" y2="155.39747373017954" style="visibility: inherit;" fill="rgb(0, 0, 0)" stroke="rgb(204, 204, 204)" stroke-width="1px"></line><line x1="40" y1="137.59747373017953" x2="35" y2="137.59747373017953" style="visibility: inherit;" fill="rgb(0, 0, 0)" stroke="rgb(204, 204, 204)" stroke-width="1px"></line><line x1="40" y1="119.79747373017952" x2="35" y2="119.79747373017952" style="visibility: inherit;" fill="rgb(0, 0, 0)" stroke="rgb(204, 204, 204)" stroke-width="1px"></line><line x1="40" y1="101.99747373017951" x2="35" y2="101.99747373017951" style="visibility: inherit;" fill="rgb(0, 0, 0)" stroke="rgb(204, 204, 204)" stroke-width="1px"></line><line x1="40" y1="84.1974737301795" x2="35" y2="84.1974737301795" style="visibility: inherit;" fill="rgb(0, 0, 0)" stroke="rgb(204, 204, 204)" stroke-width="1px"></line><line x1="40" y1="66.3974737301795" x2="35" y2="66.3974737301795" style="visibility: inherit;" fill="rgb(0, 0, 0)" stroke="rgb(204, 204, 204)" stroke-width="1px"></line><line x1="40" y1="48.59747373017947" x2="35" y2="48.59747373017947" style="visibility: inherit;" fill="rgb(0, 0, 0)" stroke="rgb(204, 204, 204)" stroke-width="1px"></line><line x1="40" y1="30.797473730179462" x2="35" y2="30.797473730179462" style="visibility: inherit;" fill="rgb(0, 0, 0)" stroke="rgb(204, 204, 204)" stroke-width="1px"></line><line x1="40" y1="12.99747373017945" x2="35" y2="12.99747373017945" style="visibility: inherit;" fill="rgb(0, 0, 0)" stroke="rgb(204, 204, 204)" stroke-width="1px"></line></g><g transform="translate(30, 0)"><text x="0" y="173.19747373017955" dx="0em" dy="0.3em" style="text-anchor: end; visibility: hidden; font-family: &quot;Helvetica Neue&quot;, sans-serif; font-size: 12px; font-weight: 200;" fill="rgb(50, 49, 63)" stroke="none" stroke-width="1px">-40</text><text x="0" y="155.39747373017954" dx="0em" dy="0.3em" style="text-anchor: end; visibility: inherit; font-family: &quot;Helvetica Neue&quot;, sans-serif; font-size: 12px; font-weight: 200;" fill="rgb(50, 49, 63)" stroke="none" stroke-width="1px">-20</text><text x="0" y="137.59747373017953" dx="0em" dy="0.3em" style="text-anchor: end; visibility: hidden; font-family: &quot;Helvetica Neue&quot;, sans-serif; font-size: 12px; font-weight: 200;" fill="rgb(50, 49, 63)" stroke="none" stroke-width="1px">0</text><text x="0" y="119.79747373017952" dx="0em" dy="0.3em" style="text-anchor: end; visibility: inherit; font-family: &quot;Helvetica Neue&quot;, sans-serif; font-size: 12px; font-weight: 200;" fill="rgb(50, 49, 63)" stroke="none" stroke-width="1px">20</text><text x="0" y="101.99747373017951" dx="0em" dy="0.3em" style="text-anchor: end; visibility: hidden; font-family: &quot;Helvetica Neue&quot;, sans-serif; font-size: 12px; font-weight: 200;" fill="rgb(50, 49, 63)" stroke="none" stroke-width="1px">40</text><text x="0" y="84.1974737301795" dx="0em" dy="0.3em" style="text-anchor: end; visibility: inherit; font-family: &quot;Helvetica Neue&quot;, sans-serif; font-size: 12px; font-weight: 200;" fill="rgb(50, 49, 63)" stroke="none" stroke-width="1px">60</text><text x="0" y="66.3974737301795" dx="0em" dy="0.3em" style="text-anchor: end; visibility: hidden; font-family: &quot;Helvetica Neue&quot;, sans-serif; font-size: 12px; font-weight: 200;" fill="rgb(50, 49, 63)" stroke="none" stroke-width="1px">80</text><text x="0" y="48.59747373017947" dx="0em" dy="0.3em" style="text-anchor: end; visibility: inherit; font-family: &quot;Helvetica Neue&quot;, sans-serif; font-size: 12px; font-weight: 200;" fill="rgb(50, 49, 63)" stroke="none" stroke-width="1px">100</text><text x="0" y="30.797473730179462" dx="0em" dy="0.3em" style="text-anchor: end; visibility: hidden; font-family: &quot;Helvetica Neue&quot;, sans-serif; font-size: 12px; font-weight: 200;" fill="rgb(50, 49, 63)" stroke="none" stroke-width="1px">120</text><text x="0" y="12.99747373017945" dx="0em" dy="0.3em" style="text-anchor: end; visibility: inherit; font-family: &quot;Helvetica Neue&quot;, sans-serif; font-size: 12px; font-weight: 200;" fill="rgb(50, 49, 63)" stroke="none" stroke-width="1px">140</text></g><line x1="40" y1="0" x2="40" y2="178" fill="rgb(0, 0, 0)" stroke="rgb(204, 204, 204)" stroke-width="1px"></line></g></g><g transform="translate(40, 0)" clip-path="url(#clip_0)"><clipPath id="clip_0"><rect width="290" height="178"></rect></clipPath><g><g><g><line x1="10.72727272727271" y1="0" x2="10.72727272727271" y2="178" fill="rgb(0, 0, 0)" stroke="rgb(60, 60, 60)" stroke-width="1px" opacity="0.25"></line><line x1="37.09090909090908" y1="0" x2="37.09090909090908" y2="178" fill="rgb(0, 0, 0)" stroke="rgb(60, 60, 60)" stroke-width="1px" opacity="0.25"></line><line x1="63.454545454545446" y1="0" x2="63.454545454545446" y2="178" fill="rgb(0, 0, 0)" stroke="rgb(60, 60, 60)" stroke-width="1px" opacity="0.25"></line><line x1="89.81818181818181" y1="0" x2="89.81818181818181" y2="178" fill="rgb(0, 0, 0)" stroke="rgb(60, 60, 60)" stroke-width="1px" opacity="0.25"></line><line x1="116.18181818181819" y1="0" x2="116.18181818181819" y2="178" fill="rgb(0, 0, 0)" stroke="rgb(60, 60, 60)" stroke-width="1px" opacity="0.25"></line><line x1="142.54545454545456" y1="0" x2="142.54545454545456" y2="178" fill="rgb(0, 0, 0)" stroke="rgb(60, 60, 60)" stroke-width="1px" opacity="0.25"></line><line x1="168.90909090909093" y1="0" x2="168.90909090909093" y2="178" fill="rgb(0, 0, 0)" stroke="rgb(60, 60, 60)" stroke-width="1px" opacity="0.25"></line><line x1="195.2727272727273" y1="0" x2="195.2727272727273" y2="178" fill="rgb(0, 0, 0)" stroke="rgb(60, 60, 60)" stroke-width="1px" opacity="0.25"></line><line x1="221.63636363636368" y1="0" x2="221.63636363636368" y2="178" fill="rgb(0, 0, 0)" stroke="rgb(60, 60, 60)" stroke-width="1px" opacity="0.25"></line><line x1="248.00000000000006" y1="0" x2="248.00000000000006" y2="178" fill="rgb(0, 0, 0)" stroke="rgb(60, 60, 60)" stroke-width="1px" opacity="0.25"></line><line x1="274.36363636363643" y1="0" x2="274.36363636363643" y2="178" fill="rgb(0, 0, 0)" stroke="rgb(60, 60, 60)" stroke-width="1px" opacity="0.25"></line></g><g><line x1="0" y1="173.19747373017955" x2="290" y2="173.19747373017955" fill="rgb(0, 0, 0)" stroke="rgb(60, 60, 60)" stroke-width="1px" opacity="0.25"></line><line x1="0" y1="155.39747373017954" x2="290" y2="155.39747373017954" fill="rgb(0, 0, 0)" stroke="rgb(60, 60, 60)" stroke-width="1px" opacity="0.25"></line><line x1="0" y1="137.59747373017953" x2="290" y2="137.59747373017953" fill="rgb(0, 0, 0)" stroke="rgb(60, 60, 60)" stroke-width="1px" opacity="0.25"></line><line x1="0" y1="119.79747373017952" x2="290" y2="119.79747373017952" fill="rgb(0, 0, 0)" stroke="rgb(60, 60, 60)" stroke-width="1px" opacity="0.25"></line><line x1="0" y1="101.99747373017951" x2="290" y2="101.99747373017951" fill="rgb(0, 0, 0)" stroke="rgb(60, 60, 60)" stroke-width="1px" opacity="0.25"></line><line x1="0" y1="84.1974737301795" x2="290" y2="84.1974737301795" fill="rgb(0, 0, 0)" stroke="rgb(60, 60, 60)" stroke-width="1px" opacity="0.25"></line><line x1="0" y1="66.3974737301795" x2="290" y2="66.3974737301795" fill="rgb(0, 0, 0)" stroke="rgb(60, 60, 60)" stroke-width="1px" opacity="0.25"></line><line x1="0" y1="48.59747373017947" x2="290" y2="48.59747373017947" fill="rgb(0, 0, 0)" stroke="rgb(60, 60, 60)" stroke-width="1px" opacity="0.25"></line><line x1="0" y1="30.797473730179462" x2="290" y2="30.797473730179462" fill="rgb(0, 0, 0)" stroke="rgb(60, 60, 60)" stroke-width="1px" opacity="0.25"></line><line x1="0" y1="12.99747373017945" x2="290" y2="12.99747373017945" fill="rgb(0, 0, 0)" stroke="rgb(60, 60, 60)" stroke-width="1px" opacity="0.25"></line></g></g></g><g><g><line x1="0" y1="137.59747373017953" x2="290" y2="137.59747373017953" fill="rgb(0, 0, 0)" stroke="rgb(153, 153, 153)" stroke-width="1.5px"></line></g></g><g><g><line x1="116.18181818181819" y1="0" x2="116.18181818181819" y2="178" fill="rgb(0, 0, 0)" stroke="rgb(153, 153, 153)" stroke-width="1.5px"></line></g></g><g><g><g><g><g><path stroke="rgb(255, 112, 67)" stroke-width="2px" d="M116.57727272727274,131.33966123017953L116.97272727272728,127.42852841767953L117.10454545454546,125.87649158732239L117.23636363636365,127.74806541216483L117.36818181818182,126.29008086064448L117.89545454545456,127.53355346635033L118.68636363636365,127.66916790832485L118.95000000000002,126.33368423969097L119.08181818181818,125.5468960234265L119.21363636363638,125.07992853227711L119.34545454545454,126.47638792500311L119.47727272727275,125.63862361652525L119.87272727272727,125.97259985813699L119.87272727272727,125.33767685484983L120.00454545454545,126.34832079458693L120.00454545454545,125.5633855299588L120.66363636363637,125.09256611604829L120.92727272727272,127.59165796936112L121.05909090909091,126.30953114604172L121.19090909090909,128.3216567461968L121.19090909090909,126.74757400921459L121.32272727272728,127.75004709232209L121.71818181818182,128.0733953010436L122.24545454545455,127.15489732050428L122.24545454545455,126.0475497361533L122.64090909090909,125.38314320040763L123.30000000000001,125.54075057362601L123.43181818181819,125.07906455272871L123.56363636363636,127.30517904393547L123.95909090909092,126.13772166033871L124.35454545454546,125.43724739536108L124.88181818181819,125.01696289583944L125.14545454545456,124.48666720425283L125.14545454545456,124.44661481347595L125.80454545454546,124.42258337974427L125.93636363636365,124.40816451976966L126.06818181818183,125.51201321076493L126.06818181818183,125.06182241685913L126.59545454545456,125.34795794282478L126.9909090909091,127.46651426059866L127.12272727272729,127.34702304833517L127.12272727272729,126.16282832050304L127.38636363636364,125.45231148416848L127.7818181818182,126.41662638273996L127.7818181818182,125.60459032163138L128.04545454545456,128.4548686852284L128.4409090909091,126.82753570314796L128.57272727272726,125.85113591393866L128.70454545454547,126.9340460404496L128.83636363636364,125.91504211633332L128.96818181818182,125.30363976186885L129.1,125.49304834919367L129.2318181818182,127.55356850159161L129.36363636363637,127.12113059302632L129.49545454545455,127.4179178478878L129.8909090909091,126.20536520080402L130.41818181818184,125.47783361255406L130.55,125.59756465960427L130.55,125.11315328783434L130.94545454545457,126.49125646477248L131.60454545454547,127.31811837093532L131.60454545454547,126.14548551463298L131.73636363636365,125.4419058008516L132.1318181818182,126.13225797258276L132.26363636363638,126.26834427562147L132.39545454545456,125.2374960574447L132.39545454545456,125.73148712653862L132.6590909090909,125.47163176799499L133.45000000000002,125.8719685528688L133.84545454545454,126.11217062379309L134.10909090909092,126.81254186634766L134.2409090909091,127.23276461188041L134.2409090909091,126.92864825920006L134.37272727272727,126.74617844759184L134.76818181818183,124.41169656062692L135.03181818181818,125.23600742844796L135.16363636363639,124.61809394914059L135.42727272727274,122.57859586155617L136.4818181818182,119.68614700900551L136.74545454545455,117.9506776974751L136.87727272727275,118.85627111055689L137.1409090909091,120.51212715840595L137.1409090909091,118.16814078711536L137.53636363636366,120.09924896434103L137.53636363636366,119.58916387067643L137.6681818181818,117.61436281447767L137.9318181818182,119.21073218075841L138.19545454545454,116.83105380052683L138.32727272727274,117.90637177238793L138.32727272727274,116.04843755550456L138.72272727272727,116.60242702537454L138.85454545454544,115.54419570729654L138.85454545454544,116.57800691644974L139.11818181818182,115.80766864194165L139.64545454545456,117.2923406772368L139.77727272727273,116.7925188984139L140.30454545454546,115.93637583112013L140.70000000000002,112.0851899907439L141.09545454545454,112.83385348651815L141.35909090909092,113.2830515839827L141.62272727272727,112.71819544246142L141.88636363636365,110.15428175754866L142.01818181818183,112.23155854660101L142.28181818181818,114.31229962003242L142.41363636363639,114.72636926409126L142.41363636363639,114.14043605052657L142.67727272727274,116.29200112238775L142.9409090909091,111.46419016550446L143.33636363636364,109.40187859137448L143.33636363636364,110.94574164689651L144.52272727272728,108.53455948020971L144.91818181818184,109.59097518019763L145.44545454545457,108.83419960019039L145.44545454545457,105.59888425218604L145.57727272727274,103.10144504338344L145.9727272727273,108.83423151810187L146.63181818181818,105.04265340293293L146.76363636363638,104.71458153383156L146.89545454545456,107.85523841237074L147.02727272727276,105.56775753949425L147.4227272727273,103.63901901576835L148.0818181818182,104.70677590153282L148.0818181818182,105.06930503299151L148.34545454545457,104.7305725118667L148.34545454545457,100.07733299919182L149.00454545454548,107.29788929158691L149.00454545454548,103.84272306702395L149.79545454545456,105.38524833228618L150.0590909090909,107.70138849144352L150.0590909090909,106.86607258693792L150.1909090909091,100.80238304423456L150.3227272727273,96.88604431861253L151.37727272727275,98.15186608323933L151.6409090909091,100.30198414201541L151.90454545454546,98.81080497728105L152.03636363636363,96.52547247844043L152.16818181818184,94.87614797913606L152.56363636363636,97.22405327955346L152.56363636363636,93.62654645980386L152.95909090909092,92.58054236795412L153.2227272727273,92.23106491284427L153.2227272727273,93.13387843977837L153.35454545454544,94.23181655593883L153.48636363636365,97.1155794256351L153.61818181818182,94.95208714745287L153.75000000000003,93.09774178054352L154.14545454545456,93.93200956039792L154.14545454545456,93.87632022831056L154.80454545454546,90.22728162905813L154.93636363636364,88.03785846950669L155.20000000000002,93.12107957377582L155.3318181818182,95.0585122363373L155.3318181818182,99.55847183387418L155.59545454545457,98.36469759239631L155.9909090909091,97.0921830475096L155.9909090909091,91.32242432057757L156.25454545454545,88.69494408441832L156.38636363636365,86.2840809427228L156.51818181818183,90.67818805770548L156.51818181818183,91.9240273266951L156.65000000000003,94.89653088808886L156.65000000000003,91.67378302492511L156.78181818181818,91.13075930702688L156.91363636363639,91.63932007628794L157.3090909090909,90.83195653784456L157.3090909090909,88.12253841477855L157.83636363636364,92.05938754093893L157.96818181818185,88.58087201663517L158.36363636363637,91.77813770205292L158.49545454545458,92.30587211330354L158.8909090909091,91.23188776005392L159.15454545454546,90.03124714810416L159.28636363636366,90.7014877809343L160.20909090909092,95.83175716063239L160.60454545454547,90.00991878845124L160.73636363636365,87.62931576514255L160.86818181818185,87.31345395115734L160.86818181818185,89.0708118627662L161,93.18460160973153L161.1318181818182,97.32162545791073L161.26363636363638,95.91008976681823L161.39545454545458,89.22254335216275L161.65909090909093,87.43501550336944L161.7909090909091,87.75312379409347L162.05454545454546,89.33461376852787L162.18636363636367,86.38975775318853L162.5818181818182,91.57596914398493L162.7136363636364,87.73457097846276L162.84545454545457,88.48910707914948L162.97727272727272,85.88245373956148L162.97727272727272,82.64971173580868L163.10909090909092,85.716316533557L163.2409090909091,86.44377941220603L163.2409090909091,84.37713213939543L163.50454545454545,86.75276877570906L163.50454545454545,86.23127575749723L163.63636363636365,87.30900494657014L163.76818181818183,85.7306424600139L163.9,85.06174996808014L164.03181818181818,86.6072894729199L164.42727272727274,86.97836317582374L164.69090909090912,91.92913239756605L164.95454545454547,91.84021893061144L165.21818181818185,91.50874585043867L165.35,92.700487002335L165.4818181818182,90.6342816934728L165.74545454545458,89.95080850815549L166.00909090909093,91.7657245969651L166.1409090909091,87.84842425025086L166.27272727272728,83.55116904222231L166.40454545454546,82.64156591740519L166.40454545454546,81.53955404251491L166.8,81.99084691758075L167.19545454545457,84.76474764262026L167.32727272727274,83.09158807764395L167.45909090909092,84.59081733865817L167.72272727272727,85.76847989526671L167.98636363636365,85.91882742923184L167.98636363636365,83.7840359496109L168.25,85.28441106183836L168.25,86.1846361291748L168.3818181818182,88.67164616957669L168.51363636363638,88.49510219381781L168.64545454545456,88.11105080836249L169.0409090909091,87.60249497708931L169.30454545454546,86.46298647832538L169.30454545454546,86.61365637906704L169.56818181818184,89.20718331951203L169.56818181818184,89.92892448377901L169.70000000000002,87.58071918233921L169.8318181818182,86.72804600147532L169.8318181818182,85.660192092957L170.35909090909092,94.753854747846L170.62272727272727,88.52880234077941L170.62272727272727,83.95939589653946L170.75454545454548,81.49587702999548L170.88636363636365,82.52089071006907L171.01818181818186,84.80464891811324L171.15,89.51240384293976L171.15,88.99955679783565L171.2818181818182,92.8637235707732L171.2818181818182,89.06347363453573L171.54545454545456,90.67707367279324L171.67727272727274,86.08273369574773L171.80909090909094,83.88237970952046L172.0727272727273,82.56216731778407L172.20454545454547,84.82941488274224L172.20454545454547,85.91163842171717L172.33636363636367,87.39534754510208L172.7318181818182,86.06057301913306L172.7318181818182,91.65658330355164L172.99545454545455,91.39856447420279L173.12727272727275,87.07187817659347L173.39090909090913,83.0852413980279L173.65454545454548,79.85888433088854L173.78636363636366,80.14807009060493L173.9181818181818,83.38095654643476L174.05,85.59881341993267L174.18181818181822,84.70452754403141L174.3136363636364,86.11483101849065L174.70909090909095,87.51726310316619L174.84090909090912,86.41184735397152L174.97272727272727,83.5235979044547L176.02727272727273,80.67814823474463L176.2909090909091,80.08337843291858L176.4227272727273,80.83901655182294L176.55454545454546,82.40489942316559L176.8181818181818,83.62255414597115L176.95000000000002,83.24064697965451L177.2136363636364,81.0646276798645L177.34545454545454,79.75901609999049L177.47727272727275,85.92877415206608L177.7409090909091,84.90250398331146L177.87272727272727,82.33986688205867L177.87272727272727,81.91478462130702L178.00454545454548,79.434735264856L178.4,90.46233065098542L178.66363636363639,88.17888788266305L179.05909090909094,85.97444722166964L179.1909090909091,86.04240782507358L179.1909090909091,80.24255918711594L179.3227272727273,80.65640000434138L179.45454545454547,78.12345449467662L179.71818181818182,78.27243718887779L179.71818181818182,78.08370180539848L179.85000000000002,80.19546057531089L179.9818181818182,78.12501583725833L180.1136363636364,81.61087399442681L180.1136363636364,78.41801388872788L180.24545454545455,80.95229782530852L180.77272727272728,81.91661818725692L180.90454545454548,82.21708540442596L181.03636363636366,81.00674073472737L181.56363636363636,80.83678393290825L181.69545454545457,76.84105985181672L182.35454545454547,79.17175040316185L182.35454545454547,82.79516473396893L182.48636363636368,81.63171333245316L182.61818181818182,82.3242674915437L182.61818181818182,78.56792498699802L182.8818181818182,82.9891194842706L182.8818181818182,92.03871118263419L183.01363636363638,89.95909120165231L183.14545454545456,86.20819421306321L183.5409090909091,82.01078101990971L183.6727272727273,82.55170810401764L183.93636363636367,79.26063935448236L183.93636363636367,76.72974810476121L184.06818181818184,75.48933835492852L184.06818181818184,74.18884250502892L184.33181818181822,76.18979499508913L184.33181818181822,74.88724148912529L184.46363636363637,77.443209385547L184.59545454545457,77.8642901234L184.72727272727275,83.12318856611179L185.25454545454548,81.55040263173889L185.51818181818183,78.93798107111513L185.65000000000003,77.92677813474087L185.7818181818182,79.54505637291633L185.91363636363636,82.7410233158216L186.17727272727276,81.32110348156476L186.30909090909094,78.52227658101066L186.4409090909091,79.9023554406782L186.4409090909091,75.72415275647873L186.5727272727273,75.99848114595903L186.7045454545455,82.00370317964723L187.23181818181823,81.99121139986013L187.49545454545455,80.31496633198789L187.75909090909096,79.58734429126451L187.75909090909096,77.76014606683052L188.02272727272728,79.44507713217011L188.15454545454548,79.06541077137386L188.28636363636363,76.89073595489612L188.55,76.69843106500947L189.07727272727274,83.25804813107747L189.20909090909095,89.41881837071828L189.3409090909091,92.28090551450279L189.4727272727273,86.76690780077345L189.86818181818182,80.67725917253588L190.00000000000003,80.36096999559332L190.1318181818182,81.56182148942781L190.26363636363638,78.94483238572849L190.52727272727276,76.54026392350889L190.7909090909091,76.48814784617713L190.9227272727273,76.45687819977807L191.31818181818184,78.38499141193864L191.45000000000002,82.60123433923499L191.45000000000002,83.1841050956128L191.97727272727275,85.48070254943948L191.97727272727275,81.57428602173549L192.3727272727273,81.45543610511311L192.76818181818183,84.44350115513964L192.76818181818183,79.83946518515559L192.90000000000003,77.63329360316516L193.42727272727276,75.19709065397089L193.5590909090909,72.34474388445435L193.8227272727273,76.7520858227444L194.21818181818185,79.95274098571845L194.35000000000002,80.20438408350289L194.61363636363637,80.07724494217352L194.74545454545458,75.5509614573759L194.87727272727275,75.06019136649735L194.87727272727275,76.99072931197023L195.9318181818182,79.53967707925392L196.0636363636364,78.28779573962416L196.32727272727277,78.3710419358463L196.32727272727277,74.80536465357957L196.45909090909092,76.00345828421956L196.7227272727273,78.94731446260353L196.7227272727273,77.65425316963392L196.8545454545455,75.76591639385214L198.0409090909091,77.41416432838308L198.17272727272731,75.34373808910165L198.30454545454546,75.49210734553277L198.43636363636367,78.08425389939147L198.43636363636367,76.58016683170669L198.8318181818182,74.0089645910958L198.9636363636364,74.13499324672931L199.09545454545457,75.04498544010939L199.22727272727278,75.03473075613742L199.35909090909092,75.30670294575425L199.4909090909091,78.25113625952437L199.75454545454545,80.57404624778643L199.88636363636365,79.46466724074365L200.01818181818183,78.79903983651799L200.15000000000003,78.1215383939826L200.28181818181818,77.71503752846135L200.41363636363639,78.02738700914861L201.0727272727273,78.21479669756098L201.33636363636364,75.54599251060839L201.60000000000002,74.77908499843683L201.7318181818182,77.65644049113389L201.7318181818182,79.93910378675213L201.99545454545458,78.52745176412309L202.12727272727275,76.84608555054564L202.3909090909091,76.39351582239918L202.5227272727273,76.95634898551131L202.65454545454546,76.73779888337859L203.05000000000004,76.88479382209896L203.3136363636364,76.13861578533118L203.44545454545457,75.9690339632705L203.44545454545457,73.6422848700341L203.70909090909092,75.58373541409226L203.70909090909092,75.63610574052716L203.84090909090912,76.22377793638809L203.9727272727273,74.90763125390465L204.6318181818182,74.3960682444146L204.89545454545458,78.26100543872056L205.02727272727273,79.46746775530414L205.42272727272731,79.91322014525427L205.68636363636367,75.73067157922435L205.81818181818184,77.94926743960642L205.95000000000005,80.39292495583565L205.95000000000005,78.79974446557318L206.34545454545457,76.73133617141572L206.60909090909092,80.21841619492123L207.00454545454548,81.19816420902453L207.26818181818186,80.67351301748651L207.4,79.24622230256372L207.5318181818182,80.61484787361003L207.66363636363639,76.70789821623782L208.05909090909094,73.8074784218145L208.19090909090912,74.29222654516049L208.45454545454547,77.08620041916811L208.71818181818185,76.25945974357266L208.71818181818185,78.5446653382154L208.85000000000002,81.58453869500104L208.85000000000002,77.56783770907242L208.9818181818182,80.72031711751525L209.37727272727275,79.55242976258096L209.7727272727273,78.29544734962039L210.16818181818186,73.92563290184401L210.43181818181822,74.91936923317822L210.5636363636364,73.56873603197873L210.95909090909095,74.14898111125903L211.22272727272727,74.21900315882723L211.75,79.82351638736816L211.8818181818182,79.2924743244927L212.0136363636364,78.41759908676742L212.14545454545458,74.55517394413226L212.27727272727273,77.80021885855116L212.5409090909091,78.9128708072025L212.5409090909091,75.9648369763933L212.6727272727273,73.63976667790777L212.80454545454546,73.07909949881646L212.93636363636367,74.68957419136169L214.12272727272727,74.82148400688881L214.25454545454548,73.78812989620508L214.25454545454548,74.83686742979486L214.65,75.18798494994871L214.7818181818182,74.84240546204104L215.17727272727274,77.13818276929644L215.17727272727274,73.50939915364967L215.30909090909094,72.72275398426162L215.5727272727273,75.86639188262878L215.5727272727273,74.41507462164907L215.70454545454547,75.76928426506123L215.83636363636367,76.30368505110854L215.96818181818185,76.34620052273694L216.10000000000002,76.37170980571395L216.2318181818182,76.10889037550018L216.75909090909093,75.11682371737191L217.15454545454548,75.07783372249496L217.15454545454548,71.71693972556876L217.8136363636364,71.64727832741306L217.94545454545457,74.66485648851963L218.60454545454547,82.31602838518361L219.2636363636364,81.34423152318196L219.2636363636364,77.97990340598096L219.52727272727276,75.12693153566039L219.65909090909093,72.85889841346804L219.65909090909093,71.21995354015262L220.18636363636367,69.95846161616338L220.31818181818184,72.26094146176982L220.45000000000002,74.75492936913369L220.45000000000002,74.02632211355201L220.7136363636364,71.920407760203L220.84545454545457,72.6037341481936L220.84545454545457,70.78872998098797L220.97727272727275,70.25597748066458L221.50454545454548,71.60507598047055L221.90000000000003,77.69891008035412L221.90000000000003,76.07083554028428L222.1636363636364,75.65024081624236L222.55909090909094,72.6166339818172L222.69090909090914,72.46521988116213L223.48181818181823,73.76499642076907L223.74545454545455,72.31986234453325L223.87727272727275,72.28715689879175L224.00909090909096,75.32690863134687L224.00909090909096,74.36950967087992L224.5363636363637,73.79507029459975L224.5363636363637,76.23165666883166L224.93181818181822,72.6873584933708L225.06363636363642,71.95140458809428L225.7227272727273,74.01295724492837L225.98636363636368,71.91238883902882L226.11818181818182,71.48642279548908L226.3818181818182,69.84021816936526L227.0409090909091,70.24312039369096L227.1727272727273,75.21298672828638L227.3045454545455,81.53240652904361L227.43636363636367,80.87405840949798L227.56818181818184,82.7040495377706L227.83181818181822,78.79579421473416L228.09545454545457,78.1195910209123L228.4909090909091,75.48886910461918L228.6227272727273,75.85731095484331L228.88636363636368,75.52212606497778L229.01818181818183,73.37414013105847L229.01818181818183,71.25097357070688L229.15000000000003,71.36769863449592L229.2818181818182,72.82835867276935L229.41363636363639,74.53912969573342L229.80909090909094,75.28746730951187L229.94090909090912,73.78959487777891L230.0727272727273,72.89087141873915L230.33636363636367,74.0203873433153L230.46818181818185,73.30747189806098L230.73181818181823,72.32347263090838L231.25909090909096,72.56744807061685L231.3909090909091,70.76695833444191L231.3909090909091,68.85228949273696L231.91818181818184,73.26598818771397L232.05000000000004,79.25170740470018L232.18181818181822,77.55876393489191L232.44545454545457,75.15237285300695L232.44545454545457,73.15228820387597L232.84090909090912,69.44911241439736L232.9727272727273,70.00845694071023L233.23636363636365,71.17843865649793L233.50000000000003,72.43667768597054L233.76363636363638,75.41662110365414L233.76363636363638,75.53583715426429L233.89545454545458,75.32924178463037L233.89545454545458,72.70215956285003L234.02727272727276,70.29153522978183L234.2909090909091,68.84516062994089L234.68636363636367,68.81171087003634L234.81818181818184,69.9041410140936L235.2136363636364,71.39397410052796L235.34545454545457,70.61912395238858L235.34545454545457,71.26671386350495L235.47727272727278,73.88026781017477L236.0045454545455,74.61402517817666L236.40000000000003,74.4980295989778L236.53181818181824,72.48155725145848L236.53181818181824,69.6029238429469L236.66363636363639,68.43199379783994L237.0590909090909,71.06693577077576L237.0590909090909,72.09165095453726L237.19090909090912,71.31585506479414L237.3227272727273,71.1285025309483L237.3227272727273,71.57234101064078L237.58636363636364,69.33551909845629L237.71818181818185,69.10592595114555L237.85000000000002,68.96817006275914L237.85000000000002,68.8855165297273L238.50909090909093,69.94842440990818L238.6409090909091,68.63929413801671L239.30000000000004,67.01944097488183L239.69545454545457,67.1600290770009L239.82727272727277,68.35688193827234L240.2227272727273,67.12811865503521L240.3545454545455,68.33773568509292L240.3545454545455,67.11663090312754L240.48636363636365,68.88709303394833L240.8818181818182,68.83687031244078L241.27727272727276,66.30361167953626L241.40909090909093,66.45240649979355L241.93636363636367,67.09793339194793L242.06818181818184,67.48524952724054L242.20000000000005,69.66451420841612L242.4636363636364,69.02519801712147L242.72727272727278,71.97910830234468L242.85909090909092,70.97020447347862L243.1227272727273,75.92736217615897L243.51818181818186,71.67040679776719L243.7818181818182,68.55998357073211L243.91363636363639,69.47497963451107L244.17727272727276,70.58022727277844L244.30909090909094,72.07775085573887L244.44090909090912,71.30751500551513L244.7045454545455,70.84537349538087L244.83636363636367,67.23058858930032L244.96818181818185,66.730467645652L245.10000000000005,65.596020079463L245.10000000000005,65.47160153974961L245.62727272727278,67.34382541592156L245.75909090909093,65.40778474162474L245.89090909090913,67.02741033704665L246.28636363636366,72.72731069429977L246.28636363636366,77.25975090865168L246.41818181818186,79.42296503726281L246.55000000000004,78.49589351442947L246.68181818181822,73.7677756007295L247.47272727272733,69.54027985250949L248.1318181818182,72.8444074035775L248.39545454545458,68.7081339342183L248.7909090909091,71.51074485260278L248.7909090909091,72.07981140363349L249.18636363636367,69.64000133425186L249.18636363636367,70.95736529262292L249.31818181818184,69.52278366764554L249.5818181818182,70.05265969265912L249.7136363636364,72.87371030766727L250.10909090909092,71.22884067667218L250.3727272727273,70.7981688980751L250.3727272727273,69.42726583091687L250.50454545454548,68.60472399062192L250.63636363636365,69.77994888644494L250.76818181818186,68.26008382393877L251.0318181818182,67.62628978643507L251.2954545454546,68.35851336393284L251.42727272727274,66.29472251043148L251.55909090909094,64.5001979983307L251.82272727272732,67.03910829107024L252.08636363636367,68.28432946671396L252.21818181818185,72.92521217210019L252.6136363636364,72.0941167953319L252.6136363636364,69.37045956927093L252.74545454545458,67.73626523363437L252.87727272727275,65.36512363225243L253.53636363636366,72.00806367142327L253.66818181818186,79.33132769492575L253.66818181818186,80.66591110902723L253.8,80.07603615748816L254.72272727272733,75.2721111865647L254.98636363636368,68.49600620401061L255.25000000000003,70.54909321447818L255.3818181818182,71.50282042075871L255.5136363636364,71.24068174452704L255.64545454545458,70.80527353878801L255.77727272727276,67.7627786153446L256.0409090909091,66.21540666127858L256.17272727272734,66.12135848883894L256.4363636363637,64.39617958537517L256.70000000000005,65.30794724329691L256.8318181818182,66.41125783804995L256.8318181818182,67.62949419490177L256.9636363636364,65.85731100901285L257.22727272727275,68.96587609747952L257.49090909090916,71.10914015055953L257.62272727272733,70.44822358240752L257.7545454545455,67.5485486415163L258.01818181818186,69.42436867698157L258.01818181818186,65.82173569826075L258.2818181818182,66.71953091102824L258.4136363636364,66.14570803868875L259.0727272727273,69.97328931528506L259.0727272727273,69.21046308124284L259.2045454545455,66.5277673408175L259.6,65.7525248965623L259.9954545454546,65.84362943000919L259.9954545454546,66.7326671500773L260.1272727272727,66.70983978211818L260.25909090909096,66.13989336134271L260.25909090909096,66.35417550887743L260.39090909090913,64.81399479739825L260.5227272727273,67.22738637051076L260.78636363636366,68.11917131437826L260.78636363636366,66.42924228069877L261.05,64.30278486049106L261.4454545454546,64.97378540836642L261.57727272727277,64.54201073709167L261.9727272727273,64.8391959343268L262.1045454545455,64.18313205266787L262.1045454545455,64.06761872367254L262.23636363636365,63.44206072627533L262.23636363636365,64.45735092783697L262.5,68.68215004877399L262.63181818181823,65.93265452133619L262.8954545454546,68.73295720487353L262.8954545454546,69.85688881499591L263.15909090909093,70.53124778106935L263.2909090909091,70.37961316071339L263.4227272727273,69.73238238849983L263.4227272727273,68.78779392517171L263.55454545454546,68.22104084717482L263.81818181818187,65.37786400037669L264.0818181818182,64.78445789229782L264.2136363636364,65.81903922745047L264.2136363636364,68.38666302854209L264.47727272727275,64.64286230919704L264.6090909090909,64.89970687759002L264.74090909090916,63.94131361862583L264.74090909090916,63.644402663247305L264.8727272727273,69.02875609002018L265.0045454545455,70.5906181460839L265.0045454545455,69.30273537972215L265.26818181818186,66.0268807199051L265.26818181818186,63.78324292401486L265.40000000000003,61.6026852464807L265.6636363636364,65.02247563996022L265.79545454545456,67.35247487604795L265.79545454545456,64.57859941770056L266.19090909090914,65.13927414269214L266.3227272727273,65.47567897768707L266.3227272727273,64.28689687868405L266.71818181818185,66.63300261928221L266.85,68.04066606364114L266.9818181818182,72.22276413025646L267.24545454545455,68.6132729702257L267.64090909090913,68.11632827420722L267.9045454545455,66.42753645659613L268.03636363636366,65.41426136602948L268.16818181818184,64.2500463116895L268.3,63.27339227908551L268.5636363636364,64.63427485952309L268.6954545454546,65.72892940778566L268.6954545454546,64.4388471367432L268.82727272727277,64.7772977741177L268.95909090909095,68.31786815654243L269.3545454545455,70.44221038599727L269.3545454545455,68.10119072367016L269.6181818181818,68.08720392627389L269.75000000000006,63.90693684783612L270.54090909090917,64.45815160077348L270.54090909090917,64.23263045253587L270.8045454545455,64.93169276359333L270.8045454545455,63.12613015022782L270.9363636363637,64.54591758220849L271.20000000000005,64.00716504139689L271.3318181818182,63.68391351690991L271.3318181818182,61.821212602217756L271.4636363636364,61.81609205340244L271.5954545454546,63.20364472411326L271.5954545454546,62.089301326539754L271.72727272727275,64.20194528799566L271.859090909091,63.52265666486919L271.9909090909091,63.39320849099332L272.12272727272733,63.87178958666779L272.3863636363637,63.880813244072485L272.3863636363637,61.383102438515294L272.51818181818186,62.94385095518099L272.7818181818182,64.43655006518038L272.91363636363644,67.27904453118005L273.1772727272728,65.09079121077983L273.96818181818185,66.8372142185397L274.2318181818182,70.38819302319563L274.49545454545455,68.90315530598917L274.75909090909096,65.2308826756653L274.89090909090913,63.58376909747099L275.1545454545455,63.70800095055438L275.55,65.72941506240441L275.55,65.27351352951446L275.81363636363636,64.99997260978046L275.9454545454546,65.11397305794007L276.20909090909095,67.68549832683584L276.20909090909095,65.89091348817331L276.3409090909091,65.92666258497577L276.8681818181818,62.332487043057256L277.00000000000006,62.957231717906154L277.13181818181823,65.83520352281549L277.13181818181823,66.7276116057611L277.2636363636364,69.48805645552846L277.3954545454546,69.19744836538888L277.65909090909093,67.35433351130513L277.9227272727273,64.30158959885486L278.0545454545455,63.30431825138473L278.1863636363637,64.93095544290263L278.1863636363637,62.29131275781339L278.31818181818187,60.42940214675984L278.8454545454546,61.537255780127694L279.5045454545455,61.6457179601484L279.90000000000003,63.10142026816084L280.4272727272728,63.41859165296832L280.4272727272728,62.77451948385276L280.69090909090914,61.55370118238346L280.9545454545455,64.7149602015019L281.21818181818185,64.66484061297294L281.48181818181826,64.07851885985556L281.6136363636364,62.61422580798515L281.8772727272728,61.17939997686288L281.8772727272728,61.98725447818951L282.00909090909096,61.35946717898551L282.14090909090913,62.095294799463105L282.66818181818184,61.980541371749666L282.80000000000007,62.7460643151216L282.93181818181824,61.25850308114474L283.0636363636364,60.64409134075865L283.45909090909095,60.83169429652699L283.85454545454553,64.281756069988L284.38181818181823,66.35179313406458L284.38181818181823,67.31569037251055L284.5136363636364,67.33777871557812L284.77727272727276,65.96040672141868L285.0409090909091,67.08085852492302L285.17272727272734,66.6406296070256L285.70000000000005,64.15149225628716L285.8318181818182,62.93613484584412L286.0954545454546,63.31942039957826L286.2272727272728,63.82751673181875L286.3590909090909,66.07924953116304L286.3590909090909,63.53653921076962L286.4909090909091,62.28903801853356L286.62272727272733,62.374912303191934L286.8863636363637,64.37331187398695L287.28181818181827,63.90360161646399L287.4136363636364,64.4561504619502L287.94090909090914,65.06580476924194L288.2045454545455,61.81597235361697L288.33636363636367,62.92544790424198L288.6,61.92238323461697L288.6,61.04241943284198L288.7318181818182,61.348816151777L288.9954545454546,62.64515418313799L289.1272727272728,60.6417070019546L289.39090909090913,63.88963869324458L289.5227272727273,64.72589770801854L289.6545454545455,63.00265311688294L289.78636363636366,64.19370636220154L289.78636363636366,62.40521330939275L290.57727272727277,63.557117477707436" style="fill: none;" fill="none"></path></g></g></g></g><g opacity="0.2"><g><g><g><path stroke="rgb(255, 112, 67)" stroke-width="2px" d="M116.57727272727274,131.33966123017953L116.97272727272728,125.08184873017953L117.10454545454546,124.38653623017953L117.23636363636365,129.94903623017953L117.36818181818182,124.38653623017953L117.89545454545456,129.25372373017953L118.68636363636365,127.86309873017953L118.95000000000002,124.38653623017953L119.08181818181818,124.38653623017953L119.21363636363638,124.38653623017953L119.34545454545454,128.55841123017953L119.47727272727275,124.38653623017953L119.87272727272727,126.47247373017953L119.87272727272727,124.38653623017953L120.00454545454545,127.86309873017953L120.00454545454545,124.38653623017953L120.66363636363637,124.38653623017953L120.92727272727272,131.33966123017953L121.05909090909091,124.38653623017953L121.19090909090909,131.33966123017953L121.19090909090909,124.38653623017953L121.32272727272728,129.25372373017953L121.71818181818182,128.55841123017953L122.24545454545455,125.77716123017953L122.24545454545455,124.38653623017953L122.64090909090909,124.38653623017953L123.30000000000001,125.77716123017953L123.43181818181819,124.38653623017953L123.56363636363636,130.64434873017953L123.95909090909092,124.38653623017953L124.35454545454546,124.38653623017953L124.88181818181819,124.38653623017953L125.14545454545456,123.69122373017953L125.14545454545456,124.38653623017953L125.80454545454546,124.38653623017953L125.93636363636365,124.38653623017953L126.06818181818183,127.16778623017953L126.06818181818183,124.38653623017953L126.59545454545456,125.77716123017953L126.9909090909091,130.64434873017953L127.12272727272729,127.16778623017953L127.12272727272729,124.38653623017953L127.38636363636364,124.38653623017953L127.7818181818182,127.86309873017953L127.7818181818182,124.38653623017953L128.04545454545456,132.73028623017953L128.4409090909091,124.38653623017953L128.57272727272726,124.38653623017953L128.70454545454547,128.55841123017953L128.83636363636364,124.38653623017953L128.96818181818182,124.38653623017953L129.1,125.77716123017953L129.2318181818182,130.64434873017953L129.36363636363637,126.47247373017953L129.49545454545455,127.86309873017953L129.8909090909091,124.38653623017953L130.41818181818184,124.38653623017953L130.55,125.77716123017953L130.55,124.38653623017953L130.94545454545457,128.55841123017953L131.60454545454547,128.55841123017953L131.60454545454547,124.38653623017953L131.73636363636365,124.38653623017953L132.1318181818182,127.16778623017953L132.26363636363638,126.47247373017953L132.39545454545456,123.69122373017953L132.39545454545456,126.47247373017953L132.6590909090909,125.08184873017953L133.45000000000002,126.47247373017953L133.84545454545454,126.47247373017953L134.10909090909092,127.86309873017953L134.2409090909091,127.86309873017953L134.2409090909091,126.47247373017953L134.37272727272727,126.47247373017953L134.76818181818183,120.90997373017953L135.03181818181818,126.47247373017953L135.16363636363639,123.69122373017953L135.42727272727274,119.51934873017953L136.4818181818182,115.34747373017953L136.74545454545455,115.34747373017953L136.87727272727275,120.21466123017953L137.1409090909091,122.99591123017953L137.1409090909091,114.65216123017953L137.53636363636366,122.99591123017953L137.53636363636366,118.82403623017953L137.6681818181818,114.65216123017953L137.9318181818182,121.60528623017953L138.19545454545454,113.26153623017953L138.32727272727274,119.51934873017953L138.32727272727274,113.26153623017953L138.72272727272727,117.43341123017953L138.85454545454544,113.95684873017953L138.85454545454544,118.12872373017953L139.11818181818182,114.65216123017953L139.64545454545456,119.51934873017953L139.77727272727273,116.04278623017953L140.30454545454546,114.65216123017953L140.70000000000002,106.30841123017952L141.09545454545454,113.95684873017953L141.35909090909092,113.95684873017953L141.62272727272727,111.87091123017953L141.88636363636365,106.30841123017952L142.01818181818183,115.34747373017953L142.28181818181818,117.43341123017953L142.41363636363639,115.34747373017953L142.41363636363639,113.26153623017953L142.67727272727274,119.51934873017953L142.9409090909091,104.22247373017952L143.33636363636364,106.30841123017952L143.33636363636364,113.26153623017953L144.52272727272728,104.91778623017952L144.91818181818184,111.17559873017953L145.44545454545457,107.69903623017952L145.44545454545457,100.74591123017952L145.57727272727274,99.35528623017952L145.9727272727273,117.43341123017953L146.63181818181818,99.35528623017952L146.76363636363638,104.22247373017952L146.89545454545456,112.56622373017953L147.02727272727276,102.13653623017952L147.4227272727273,100.74591123017952L148.0818181818182,106.30841123017952L148.0818181818182,105.61309873017952L148.34545454545457,104.22247373017952L148.34545454545457,93.0974737301795L149.00454545454548,118.12872373017953L149.00454545454548,98.65997373017952L149.79545454545456,107.69903623017952L150.0590909090909,111.17559873017953L150.0590909090909,105.61309873017952L150.1909090909091,91.7068487301795L150.3227272727273,91.0115362301795L151.37727272727275,100.05059873017952L151.6409090909091,103.52716123017952L151.90454545454546,96.57403623017952L152.03636363636363,93.0974737301795L152.16818181818184,92.4021612301795L152.56363636363636,100.74591123017952L152.56363636363636,88.2302862301795L152.95909090909092,91.0115362301795L153.2227272727273,91.7068487301795L153.2227272727273,94.48809873017952L153.35454545454544,95.87872373017952L153.48636363636365,101.44122373017952L153.61818181818182,91.7068487301795L153.75000000000003,90.3162237301795L154.14545454545456,95.18341123017952L154.14545454545456,93.79278623017952L154.80454545454546,84.7537237301795L154.93636363636364,84.7537237301795L155.20000000000002,100.74591123017952L155.3318181818182,97.96466123017952L155.3318181818182,106.30841123017952L155.59545454545457,96.57403623017952L155.9909090909091,95.18341123017952L155.9909090909091,82.6677862301795L156.25454545454545,84.7537237301795L156.38636363636365,82.6677862301795L156.51818181818183,97.26934873017952L156.51818181818183,93.79278623017952L156.65000000000003,99.35528623017952L156.65000000000003,86.8396612301795L156.78181818181818,90.3162237301795L156.91363636363639,92.4021612301795L157.3090909090909,89.6209112301795L157.3090909090909,84.0584112301795L157.83636363636364,97.96466123017952L157.96818181818185,83.3630987301795L158.36363636363637,96.57403623017952L158.49545454545458,93.0974737301795L158.8909090909091,89.6209112301795L159.15454545454546,88.2302862301795L159.28636363636366,91.7068487301795L160.20909090909092,103.52716123017952L160.60454545454547,81.2771612301795L160.73636363636365,84.0584112301795L160.86818181818185,86.8396612301795L160.86818181818185,91.7068487301795L161,99.35528623017952L161.1318181818182,103.52716123017952L161.26363636363638,93.79278623017952L161.39545454545458,79.1912237301795L161.65909090909093,84.7537237301795L161.7909090909091,88.2302862301795L162.05454545454546,91.7068487301795L162.18636363636367,81.9724737301795L162.5818181818182,99.35528623017952L162.7136363636364,81.9724737301795L162.84545454545457,89.6209112301795L162.97727272727272,81.9724737301795L162.97727272727272,77.8005987301795L163.10909090909092,90.3162237301795L163.2409090909091,87.5349737301795L163.2409090909091,81.2771612301795L163.50454545454545,90.3162237301795L163.50454545454545,85.4490362301795L163.63636363636365,88.9255987301795L163.76818181818183,83.3630987301795L163.9,84.0584112301795L164.03181818181818,88.9255987301795L164.42727272727274,87.5349737301795L164.69090909090912,99.35528623017952L164.95454545454547,91.7068487301795L165.21818181818185,91.0115362301795L165.35,94.48809873017952L165.4818181818182,87.5349737301795L165.74545454545458,88.9255987301795L166.00909090909093,94.48809873017952L166.1409090909091,81.9724737301795L166.27272727272728,77.1052862301795L166.40454545454546,81.2771612301795L166.40454545454546,79.8865362301795L166.8,82.6677862301795L167.19545454545457,88.9255987301795L167.32727272727274,80.5818487301795L167.45909090909092,86.8396612301795L167.72272727272727,87.5349737301795L167.98636363636365,86.1443487301795L167.98636363636365,80.5818487301795L168.25,87.5349737301795L168.25,87.5349737301795L168.3818181818182,92.4021612301795L168.51363636363638,88.2302862301795L168.64545454545456,87.5349737301795L169.0409090909091,86.8396612301795L169.30454545454546,84.7537237301795L169.30454545454546,86.8396612301795L169.56818181818184,93.0974737301795L169.56818181818184,91.0115362301795L169.70000000000002,84.0584112301795L169.8318181818182,85.4490362301795L169.8318181818182,84.0584112301795L170.35909090909092,108.39434873017952L170.62272727272727,79.1912237301795L170.62272727272727,77.1052862301795L170.75454545454548,77.8005987301795L170.88636363636365,84.0584112301795L171.01818181818186,88.2302862301795L171.15,96.57403623017952L171.15,88.2302862301795L171.2818181818182,98.65997373017952L171.2818181818182,83.3630987301795L171.54545454545456,93.0974737301795L171.67727272727274,79.1912237301795L171.80909090909094,80.5818487301795L172.0727272727273,80.5818487301795L172.20454545454547,88.2302862301795L172.20454545454547,87.5349737301795L172.33636363636367,89.6209112301795L172.7318181818182,84.0584112301795L172.7318181818182,100.05059873017952L172.99545454545455,91.0115362301795L173.12727272727275,80.5818487301795L173.39090909090913,77.1052862301795L173.65454545454548,75.0193487301795L173.78636363636366,80.5818487301795L173.9181818181818,88.2302862301795L174.05,88.9255987301795L174.18181818181822,83.3630987301795L174.3136363636364,88.2302862301795L174.70909090909095,89.6209112301795L174.84090909090912,84.7537237301795L174.97272727272727,79.1912237301795L176.02727272727273,76.4099737301795L176.2909090909091,79.1912237301795L176.4227272727273,81.9724737301795L176.55454545454546,84.7537237301795L176.8181818181818,85.4490362301795L176.95000000000002,82.6677862301795L177.2136363636364,77.8005987301795L177.34545454545454,77.8005987301795L177.47727272727275,95.18341123017952L177.7409090909091,83.3630987301795L177.87272727272727,78.4959112301795L177.87272727272727,81.2771612301795L178.00454545454548,75.7146612301795L178.4,107.00372373017952L178.66363636363639,84.7537237301795L179.05909090909094,82.6677862301795L179.1909090909091,86.1443487301795L179.1909090909091,71.5427862301795L179.3227272727273,81.2771612301795L179.45454545454547,74.3240362301795L179.71818181818182,78.4959112301795L179.71818181818182,77.8005987301795L179.85000000000002,83.3630987301795L179.9818181818182,75.0193487301795L180.1136363636364,86.8396612301795L180.1136363636364,73.6287237301795L180.24545454545455,84.7537237301795L180.77272727272728,83.3630987301795L180.90454545454548,82.6677862301795L181.03636363636366,79.1912237301795L181.56363636363636,80.5818487301795L181.69545454545457,70.8474737301795L182.35454545454547,82.6677862301795L182.35454545454547,88.2302862301795L182.48636363636368,79.8865362301795L182.61818181818182,83.3630987301795L182.61818181818182,72.9334112301795L182.8818181818182,89.6209112301795L182.8818181818182,105.61309873017952L183.01363636363638,86.8396612301795L183.14545454545456,80.5818487301795L183.5409090909091,75.7146612301795L183.6727272727273,83.3630987301795L183.93636363636367,74.3240362301795L183.93636363636367,72.9334112301795L184.06818181818184,73.6287237301795L184.06818181818184,72.2380987301795L184.33181818181822,79.1912237301795L184.33181818181822,72.9334112301795L184.46363636363637,81.2771612301795L184.59545454545457,78.4959112301795L184.72727272727275,91.0115362301795L185.25454545454548,79.1912237301795L185.51818181818183,75.0193487301795L185.65000000000003,76.4099737301795L185.7818181818182,81.9724737301795L185.91363636363636,87.5349737301795L186.17727272727276,79.1912237301795L186.30909090909094,74.3240362301795L186.4409090909091,81.9724737301795L186.4409090909091,69.4568487301795L186.5727272727273,76.4099737301795L186.7045454545455,91.0115362301795L187.23181818181823,81.9724737301795L187.49545454545455,77.8005987301795L187.75909090909096,78.4959112301795L187.75909090909096,75.0193487301795L188.02272727272728,81.9724737301795L188.15454545454548,78.4959112301795L188.28636363636363,73.6287237301795L188.55,76.4099737301795L189.07727272727274,93.0974737301795L189.20909090909095,98.65997373017952L189.3409090909091,96.57403623017952L189.4727272727273,78.4959112301795L189.86818181818182,71.5427862301795L190.00000000000003,79.8865362301795L190.1318181818182,83.3630987301795L190.26363636363638,75.0193487301795L190.52727272727276,72.9334112301795L190.7909090909091,76.4099737301795L190.9227272727273,76.4099737301795L191.31818181818184,81.2771612301795L191.45000000000002,88.9255987301795L191.45000000000002,84.0584112301795L191.97727272727275,88.9255987301795L191.97727272727275,75.7146612301795L192.3727272727273,81.2771612301795L192.76818181818183,88.9255987301795L192.76818181818183,72.9334112301795L192.90000000000003,74.3240362301795L193.42727272727276,71.5427862301795L193.5590909090909,68.0662237301795L193.8227272727273,83.3630987301795L194.21818181818185,84.7537237301795L194.35000000000002,80.5818487301795L194.61363636363637,79.8865362301795L194.74545454545458,68.7615362301795L194.87727272727275,74.3240362301795L194.87727272727275,79.8865362301795L195.9318181818182,83.3630987301795L196.0636363636364,76.4099737301795L196.32727272727277,78.4959112301795L196.32727272727277,69.4568487301795L196.45909090909092,77.8005987301795L196.7227272727273,83.3630987301795L196.7227272727273,75.7146612301795L196.8545454545455,72.9334112301795L198.0409090909091,79.8865362301795L198.17272727272731,72.2380987301795L198.30454545454546,75.7146612301795L198.43636363636367,81.9724737301795L198.43636363636367,74.3240362301795L198.8318181818182,70.1521612301795L198.9636363636364,74.3240362301795L199.09545454545457,76.4099737301795L199.22727272727278,75.0193487301795L199.35909090909092,75.7146612301795L199.4909090909091,82.6677862301795L199.75454545454545,84.0584112301795L199.88636363636365,77.8005987301795L200.01818181818183,77.8005987301795L200.15000000000003,77.1052862301795L200.28181818181818,77.1052862301795L200.41363636363639,78.4959112301795L201.0727272727273,78.4959112301795L201.33636363636364,71.5427862301795L201.60000000000002,73.6287237301795L201.7318181818182,81.9724737301795L201.7318181818182,83.3630987301795L201.99545454545458,76.4099737301795L202.12727272727275,74.3240362301795L202.3909090909091,75.7146612301795L202.5227272727273,77.8005987301795L202.65454545454546,76.4099737301795L203.05000000000004,77.1052862301795L203.3136363636364,75.0193487301795L203.44545454545457,75.7146612301795L203.44545454545457,70.1521612301795L203.70909090909092,78.4959112301795L203.70909090909092,75.7146612301795L203.84090909090912,77.1052862301795L203.9727272727273,72.9334112301795L204.6318181818182,73.6287237301795L204.89545454545458,84.0584112301795L205.02727272727273,81.2771612301795L205.42272727272731,80.5818487301795L205.68636363636367,69.4568487301795L205.81818181818184,81.2771612301795L205.95000000000005,84.0584112301795L205.95000000000005,76.4099737301795L206.34545454545457,73.6287237301795L206.60909090909092,85.4490362301795L207.00454545454548,82.6677862301795L207.26818181818186,79.8865362301795L207.4,77.1052862301795L207.5318181818182,82.6677862301795L207.66363636363639,70.8474737301795L208.05909090909094,69.4568487301795L208.19090909090912,75.0193487301795L208.45454545454547,81.2771612301795L208.71818181818185,75.0193487301795L208.71818181818185,81.9724737301795L208.85000000000002,86.1443487301795L208.85000000000002,71.5427862301795L208.9818181818182,85.4490362301795L209.37727272727275,77.8005987301795L209.7727272727273,76.4099737301795L210.16818181818186,67.37091123017949L210.43181818181822,76.4099737301795L210.5636363636364,71.5427862301795L210.95909090909095,75.0193487301795L211.22272727272727,74.3240362301795L211.75,88.2302862301795L211.8818181818182,78.4959112301795L212.0136363636364,77.1052862301795L212.14545454545458,68.7615362301795L212.27727272727273,82.6677862301795L212.5409090909091,80.5818487301795L212.5409090909091,71.5427862301795L212.6727272727273,70.1521612301795L212.80454545454546,72.2380987301795L212.93636363636367,77.1052862301795L214.12272727272727,75.0193487301795L214.25454545454548,72.2380987301795L214.25454545454548,76.4099737301795L214.65,75.7146612301795L214.7818181818182,74.3240362301795L215.17727272727274,80.5818487301795L215.17727272727274,68.0662237301795L215.30909090909094,71.5427862301795L215.5727272727273,80.5818487301795L215.5727272727273,72.2380987301795L215.70454545454547,77.8005987301795L215.83636363636367,77.1052862301795L215.96818181818185,76.4099737301795L216.10000000000002,76.4099737301795L216.2318181818182,75.7146612301795L216.75909090909093,73.6287237301795L217.15454545454548,75.0193487301795L217.15454545454548,66.67559873017949L217.8136363636364,71.5427862301795L217.94545454545457,79.1912237301795L218.60454545454547,93.79278623017952L219.2636363636364,79.8865362301795L219.2636363636364,72.9334112301795L219.52727272727276,70.8474737301795L219.65909090909093,69.4568487301795L219.65909090909093,68.7615362301795L220.18636363636367,68.0662237301795L220.31818181818184,75.7146612301795L220.45000000000002,78.4959112301795L220.45000000000002,72.9334112301795L220.7136363636364,68.7615362301795L220.84545454545457,73.6287237301795L220.84545454545457,68.0662237301795L220.97727272727275,69.4568487301795L221.50454545454548,73.6287237301795L221.90000000000003,86.8396612301795L221.90000000000003,73.6287237301795L222.1636363636364,75.0193487301795L222.55909090909094,68.0662237301795L222.69090909090914,72.2380987301795L223.48181818181823,75.7146612301795L223.74545454545455,70.1521612301795L223.87727272727275,72.2380987301795L224.00909090909096,79.8865362301795L224.00909090909096,72.9334112301795L224.5363636363637,72.9334112301795L224.5363636363637,79.8865362301795L224.93181818181822,67.37091123017949L225.06363636363642,70.8474737301795L225.7227272727273,77.1052862301795L225.98636363636368,68.7615362301795L226.11818181818182,70.8474737301795L226.3818181818182,67.37091123017949L227.0409090909091,70.8474737301795L227.1727272727273,82.6677862301795L227.3045454545455,91.0115362301795L227.43636363636367,79.8865362301795L227.56818181818184,85.4490362301795L227.83181818181822,72.9334112301795L228.09545454545457,77.1052862301795L228.4909090909091,71.5427862301795L228.6227272727273,76.4099737301795L228.88636363636368,75.0193487301795L229.01818181818183,70.1521612301795L229.01818181818183,68.0662237301795L229.15000000000003,71.5427862301795L229.2818181818182,75.0193487301795L229.41363636363639,77.1052862301795L229.80909090909094,76.4099737301795L229.94090909090912,71.5427862301795L230.0727272727273,71.5427862301795L230.33636363636367,75.7146612301795L230.46818181818185,72.2380987301795L230.73181818181823,70.8474737301795L231.25909090909096,72.9334112301795L231.3909090909091,68.0662237301795L231.3909090909091,65.98028623017949L231.91818181818184,79.8865362301795L232.05000000000004,88.2302862301795L232.18181818181822,75.0193487301795L232.44545454545457,71.5427862301795L232.44545454545457,70.1521612301795L232.84090909090912,63.89434873017949L232.9727272727273,70.8474737301795L233.23636363636365,72.9334112301795L233.50000000000003,74.3240362301795L233.76363636363638,79.8865362301795L233.76363636363638,75.7146612301795L233.89545454545458,75.0193487301795L233.89545454545458,68.7615362301795L234.02727272727276,66.67559873017949L234.2909090909091,66.67559873017949L234.68636363636367,68.7615362301795L234.81818181818184,71.5427862301795L235.2136363636364,73.6287237301795L235.34545454545457,69.4568487301795L235.34545454545457,72.2380987301795L235.47727272727278,77.8005987301795L236.0045454545455,75.7146612301795L236.40000000000003,74.3240362301795L236.53181818181824,69.4568487301795L236.53181818181824,65.28497373017949L236.66363636363639,66.67559873017949L237.0590909090909,75.0193487301795L237.0590909090909,73.6287237301795L237.19090909090912,70.1521612301795L237.3227272727273,70.8474737301795L237.3227272727273,72.2380987301795L237.58636363636364,65.98028623017949L237.71818181818185,68.7615362301795L237.85000000000002,68.7615362301795L237.85000000000002,68.7615362301795L238.50909090909093,71.5427862301795L238.6409090909091,66.67559873017949L239.30000000000004,64.58966123017949L239.69545454545457,67.37091123017949L239.82727272727277,70.1521612301795L240.2227272727273,65.28497373017949L240.3545454545455,70.1521612301795L240.3545454545455,65.28497373017949L240.48636363636365,71.5427862301795L240.8818181818182,68.7615362301795L241.27727272727276,62.50372373017949L241.40909090909093,66.67559873017949L241.93636363636367,68.0662237301795L242.06818181818184,68.0662237301795L242.20000000000005,72.9334112301795L242.4636363636364,68.0662237301795L242.72727272727278,76.4099737301795L242.85909090909092,69.4568487301795L243.1227272727273,83.3630987301795L243.51818181818186,65.28497373017949L243.7818181818182,63.89434873017949L243.91363636363639,70.8474737301795L244.17727272727276,72.2380987301795L244.30909090909094,74.3240362301795L244.44090909090912,70.1521612301795L244.7045454545455,70.1521612301795L244.83636363636367,61.80841123017949L244.96818181818185,65.98028623017949L245.10000000000005,63.89434873017949L245.10000000000005,65.28497373017949L245.62727272727278,70.1521612301795L245.75909090909093,62.50372373017949L245.89090909090913,69.4568487301795L246.28636363636366,81.2771612301795L246.28636363636366,84.0584112301795L246.41818181818186,82.6677862301795L246.55000000000004,77.1052862301795L246.68181818181822,66.67559873017949L247.47272727272733,63.19903623017949L248.1318181818182,77.8005987301795L248.39545454545458,62.50372373017949L248.7909090909091,75.7146612301795L248.7909090909091,72.9334112301795L249.18636363636367,65.98028623017949L249.18636363636367,72.9334112301795L249.31818181818184,67.37091123017949L249.5818181818182,70.8474737301795L249.7136363636364,77.1052862301795L250.10909090909092,68.7615362301795L250.3727272727273,70.1521612301795L250.3727272727273,67.37091123017949L250.50454545454548,67.37091123017949L250.63636363636365,71.5427862301795L250.76818181818186,65.98028623017949L251.0318181818182,66.67559873017949L251.2954545454546,69.4568487301795L251.42727272727274,63.19903623017949L251.55909090909094,61.80841123017949L251.82272727272732,70.8474737301795L252.08636363636367,70.1521612301795L252.21818181818185,79.8865362301795L252.6136363636364,70.8474737301795L252.6136363636364,65.28497373017949L252.74545454545458,65.28497373017949L252.87727272727275,61.80841123017949L253.53636363636366,81.9724737301795L253.66818181818186,90.3162237301795L253.66818181818186,82.6677862301795L253.8,79.1912237301795L254.72272727272733,68.0662237301795L254.98636363636368,58.33184873017949L255.25000000000003,73.6287237301795L255.3818181818182,72.9334112301795L255.5136363636364,70.8474737301795L255.64545454545458,70.1521612301795L255.77727272727276,63.19903623017949L256.0409090909091,63.89434873017949L256.17272727272734,65.98028623017949L256.4363636363637,61.80841123017949L256.70000000000005,66.67559873017949L256.8318181818182,68.0662237301795L256.8318181818182,69.4568487301795L256.9636363636364,63.19903623017949L257.22727272727275,73.6287237301795L257.49090909090916,74.3240362301795L257.62272727272733,69.4568487301795L257.7545454545455,63.19903623017949L258.01818181818186,72.2380987301795L258.01818181818186,60.41778623017949L258.2818181818182,68.0662237301795L258.4136363636364,65.28497373017949L259.0727272727273,75.7146612301795L259.0727272727273,68.0662237301795L259.2045454545455,62.50372373017949L259.6,64.58966123017949L259.9954545454546,65.98028623017949L259.9954545454546,68.0662237301795L260.1272727272727,66.67559873017949L260.25909090909096,65.28497373017949L260.25909090909096,66.67559873017949L260.39090909090913,62.50372373017949L260.5227272727273,70.8474737301795L260.78636363636366,69.4568487301795L260.78636363636366,63.89434873017949L261.05,61.11309873017949L261.4454545454546,65.98028623017949L261.57727272727277,63.89434873017949L261.9727272727273,65.28497373017949L262.1045454545455,63.19903623017949L262.1045454545455,63.89434873017949L262.23636363636365,62.50372373017949L262.23636363636365,65.98028623017949L262.5,75.0193487301795L262.63181818181823,61.80841123017949L262.8954545454546,72.9334112301795L262.8954545454546,71.5427862301795L263.15909090909093,71.5427862301795L263.2909090909091,70.1521612301795L263.4227272727273,68.7615362301795L263.4227272727273,67.37091123017949L263.55454545454546,67.37091123017949L263.81818181818187,61.11309873017949L264.0818181818182,63.89434873017949L264.2136363636364,67.37091123017949L264.2136363636364,72.2380987301795L264.47727272727275,59.02716123017949L264.6090909090909,65.28497373017949L264.74090909090916,62.50372373017949L264.74090909090916,63.19903623017949L264.8727272727273,77.1052862301795L265.0045454545455,72.9334112301795L265.0045454545455,67.37091123017949L265.26818181818186,61.11309873017949L265.26818181818186,60.41778623017949L265.40000000000003,58.33184873017949L265.6636363636364,70.1521612301795L265.79545454545456,70.8474737301795L265.79545454545456,60.41778623017949L266.19090909090914,65.98028623017949L266.3227272727273,65.98028623017949L266.3227272727273,62.50372373017949L266.71818181818185,70.1521612301795L266.85,70.1521612301795L266.9818181818182,78.4959112301795L267.24545454545455,63.19903623017949L267.64090909090913,67.37091123017949L267.9045454545455,63.89434873017949L268.03636363636366,63.89434873017949L268.16818181818184,62.50372373017949L268.3,61.80841123017949L268.5636363636364,66.67559873017949L268.6954545454546,67.37091123017949L268.6954545454546,62.50372373017949L268.82727272727277,65.28497373017949L268.95909090909095,73.6287237301795L269.3545454545455,73.6287237301795L269.3545454545455,64.58966123017949L269.6181818181818,68.0662237301795L269.75000000000006,57.63653623017949L270.54090909090917,65.28497373017949L270.54090909090917,63.89434873017949L270.8045454545455,65.98028623017949L270.8045454545455,60.41778623017949L270.9363636363637,66.67559873017949L271.20000000000005,63.19903623017949L271.3318181818182,63.19903623017949L271.3318181818182,59.02716123017949L271.4636363636364,61.80841123017949L271.5954545454546,65.28497373017949L271.5954545454546,60.41778623017949L271.72727272727275,67.37091123017949L271.859090909091,62.50372373017949L271.9909090909091,63.19903623017949L272.12272727272733,64.58966123017949L272.3863636363637,63.89434873017949L272.3863636363637,57.63653623017949L272.51818181818186,65.28497373017949L272.7818181818182,66.67559873017949L272.91363636363644,71.5427862301795L273.1772727272728,61.80841123017949L273.96818181818185,69.4568487301795L274.2318181818182,75.7146612301795L274.49545454545455,66.67559873017949L274.75909090909096,59.72247373017949L274.89090909090913,61.11309873017949L275.1545454545455,63.89434873017949L275.55,68.7615362301795L275.55,64.58966123017949L275.81363636363636,64.58966123017949L275.9454545454546,65.28497373017949L276.20909090909095,71.5427862301795L276.20909090909095,63.19903623017949L276.3409090909091,65.98028623017949L276.8681818181818,56.94122373017949L277.00000000000006,63.89434873017949L277.13181818181823,70.1521612301795L277.13181818181823,68.0662237301795L277.2636363636364,73.6287237301795L277.3954545454546,68.7615362301795L277.65909090909093,64.58966123017949L277.9227272727273,59.72247373017949L278.0545454545455,61.80841123017949L278.1863636363637,67.37091123017949L278.1863636363637,58.33184873017949L278.31818181818187,57.63653623017949L278.8454545454546,63.19903623017949L279.5045454545455,61.80841123017949L279.90000000000003,65.28497373017949L280.4272727272728,63.89434873017949L280.4272727272728,61.80841123017949L280.69090909090914,59.72247373017949L280.9545454545455,69.4568487301795L281.21818181818185,64.58966123017949L281.48181818181826,63.19903623017949L281.6136363636364,60.41778623017949L281.8772727272728,59.02716123017949L281.8772727272728,63.19903623017949L282.00909090909096,60.41778623017949L282.14090909090913,63.19903623017949L282.66818181818184,61.80841123017949L282.80000000000007,63.89434873017949L282.93181818181824,59.02716123017949L283.0636363636364,59.72247373017949L283.45909090909095,61.11309873017949L283.85454545454553,69.4568487301795L284.38181818181823,69.4568487301795L284.38181818181823,68.7615362301795L284.5136363636364,67.37091123017949L284.77727272727276,63.89434873017949L285.0409090909091,68.7615362301795L285.17272727272734,65.98028623017949L285.70000000000005,60.41778623017949L285.8318181818182,61.11309873017949L286.0954545454546,63.89434873017949L286.2272727272728,64.58966123017949L286.3590909090909,69.4568487301795L286.3590909090909,59.72247373017949L286.4909090909091,60.41778623017949L286.62272727272733,62.50372373017949L286.8863636363637,67.37091123017949L287.28181818181827,63.19903623017949L287.4136363636364,65.28497373017949L287.94090909090914,65.98028623017949L288.2045454545455,56.94122373017949L288.33636363636367,64.58966123017949L288.6,60.41778623017949L288.6,59.72247373017949L288.7318181818182,61.80841123017949L288.9954545454546,64.58966123017949L289.1272727272728,57.63653623017949L289.39090909090913,68.7615362301795L289.5227272727273,65.98028623017949L289.6545454545455,60.41778623017949L289.78636363636366,65.98028623017949L289.78636363636366,59.72247373017949L290.57727272727277,65.28497373017949" style="fill: none;" fill="none"></path></g></g></g></g></g></g><g transform="translate(40, 178)" clip-path="url(#clip_1)"><clipPath id="clip_1"><rect width="290" height="22"></rect></clipPath><g><g><line x1="10.72727272727271" y1="0" x2="10.72727272727271" y2="5" style="visibility: inherit;" fill="rgb(0, 0, 0)" stroke="rgb(204, 204, 204)" stroke-width="1px"></line><line x1="37.09090909090908" y1="0" x2="37.09090909090908" y2="5" style="visibility: inherit;" fill="rgb(0, 0, 0)" stroke="rgb(204, 204, 204)" stroke-width="1px"></line><line x1="63.454545454545446" y1="0" x2="63.454545454545446" y2="5" style="visibility: inherit;" fill="rgb(0, 0, 0)" stroke="rgb(204, 204, 204)" stroke-width="1px"></line><line x1="89.81818181818181" y1="0" x2="89.81818181818181" y2="5" style="visibility: inherit;" fill="rgb(0, 0, 0)" stroke="rgb(204, 204, 204)" stroke-width="1px"></line><line x1="116.18181818181819" y1="0" x2="116.18181818181819" y2="5" style="visibility: inherit;" fill="rgb(0, 0, 0)" stroke="rgb(204, 204, 204)" stroke-width="1px"></line><line x1="142.54545454545456" y1="0" x2="142.54545454545456" y2="5" style="visibility: inherit;" fill="rgb(0, 0, 0)" stroke="rgb(204, 204, 204)" stroke-width="1px"></line><line x1="168.90909090909093" y1="0" x2="168.90909090909093" y2="5" style="visibility: inherit;" fill="rgb(0, 0, 0)" stroke="rgb(204, 204, 204)" stroke-width="1px"></line><line x1="195.2727272727273" y1="0" x2="195.2727272727273" y2="5" style="visibility: inherit;" fill="rgb(0, 0, 0)" stroke="rgb(204, 204, 204)" stroke-width="1px"></line><line x1="221.63636363636368" y1="0" x2="221.63636363636368" y2="5" style="visibility: inherit;" fill="rgb(0, 0, 0)" stroke="rgb(204, 204, 204)" stroke-width="1px"></line><line x1="248.00000000000006" y1="0" x2="248.00000000000006" y2="5" style="visibility: inherit;" fill="rgb(0, 0, 0)" stroke="rgb(204, 204, 204)" stroke-width="1px"></line><line x1="274.36363636363643" y1="0" x2="274.36363636363643" y2="5" style="visibility: inherit;" fill="rgb(0, 0, 0)" stroke="rgb(204, 204, 204)" stroke-width="1px"></line></g><g transform="translate(0, 8)"><text x="10.72727272727271" y="0" dx="0em" dy="0.95em" style="text-anchor: middle; visibility: hidden; font-family: &quot;Helvetica Neue&quot;, sans-serif; font-size: 12px; font-weight: 200;" fill="rgb(50, 49, 63)" stroke="none" stroke-width="1px">-800</text><text x="37.09090909090908" y="0" dx="0em" dy="0.95em" style="text-anchor: middle; visibility: inherit; font-family: &quot;Helvetica Neue&quot;, sans-serif; font-size: 12px; font-weight: 200;" fill="rgb(50, 49, 63)" stroke="none" stroke-width="1px">-600</text><text x="63.454545454545446" y="0" dx="0em" dy="0.95em" style="text-anchor: middle; visibility: hidden; font-family: &quot;Helvetica Neue&quot;, sans-serif; font-size: 12px; font-weight: 200;" fill="rgb(50, 49, 63)" stroke="none" stroke-width="1px">-400</text><text x="89.81818181818181" y="0" dx="0em" dy="0.95em" style="text-anchor: middle; visibility: inherit; font-family: &quot;Helvetica Neue&quot;, sans-serif; font-size: 12px; font-weight: 200;" fill="rgb(50, 49, 63)" stroke="none" stroke-width="1px">-200</text><text x="116.18181818181819" y="0" dx="0em" dy="0.95em" style="text-anchor: middle; visibility: hidden; font-family: &quot;Helvetica Neue&quot;, sans-serif; font-size: 12px; font-weight: 200;" fill="rgb(50, 49, 63)" stroke="none" stroke-width="1px">0</text><text x="142.54545454545456" y="0" dx="0em" dy="0.95em" style="text-anchor: middle; visibility: inherit; font-family: &quot;Helvetica Neue&quot;, sans-serif; font-size: 12px; font-weight: 200;" fill="rgb(50, 49, 63)" stroke="none" stroke-width="1px">200</text><text x="168.90909090909093" y="0" dx="0em" dy="0.95em" style="text-anchor: middle; visibility: hidden; font-family: &quot;Helvetica Neue&quot;, sans-serif; font-size: 12px; font-weight: 200;" fill="rgb(50, 49, 63)" stroke="none" stroke-width="1px">400</text><text x="195.2727272727273" y="0" dx="0em" dy="0.95em" style="text-anchor: middle; visibility: inherit; font-family: &quot;Helvetica Neue&quot;, sans-serif; font-size: 12px; font-weight: 200;" fill="rgb(50, 49, 63)" stroke="none" stroke-width="1px">600</text><text x="221.63636363636368" y="0" dx="0em" dy="0.95em" style="text-anchor: middle; visibility: hidden; font-family: &quot;Helvetica Neue&quot;, sans-serif; font-size: 12px; font-weight: 200;" fill="rgb(50, 49, 63)" stroke="none" stroke-width="1px">800</text><text x="248.00000000000006" y="0" dx="0em" dy="0.95em" style="text-anchor: middle; visibility: inherit; font-family: &quot;Helvetica Neue&quot;, sans-serif; font-size: 12px; font-weight: 200;" fill="rgb(50, 49, 63)" stroke="none" stroke-width="1px">1k</text><text x="274.36363636363643" y="0" dx="0em" dy="0.95em" style="text-anchor: middle; visibility: hidden; font-family: &quot;Helvetica Neue&quot;, sans-serif; font-size: 12px; font-weight: 200;" fill="rgb(50, 49, 63)" stroke="none" stroke-width="1px">1.2k</text></g><line x1="0" y1="0" x2="290" y2="0" fill="rgb(0, 0, 0)" stroke="rgb(204, 204, 204)" stroke-width="1px"></line></g></g></g></g></svg>