<svg viewBox="0 0 330 200" xmlns="http://www.w3.org/2000/svg"><g><g><g><g><g><line x1="50" y1="171.22851113867952" x2="45" y2="171.22851113867952" style="visibility: inherit;" fill="rgb(0, 0, 0)" stroke="rgb(204, 204, 204)" stroke-width="1px"></line><line x1="50" y1="156.10859210507348" x2="45" y2="156.10859210507348" style="visibility: inherit;" fill="rgb(0, 0, 0)" stroke="rgb(204, 204, 204)" stroke-width="1px"></line><line x1="50" y1="140.98867307146745" x2="45" y2="140.98867307146745" style="visibility: inherit;" fill="rgb(0, 0, 0)" stroke="rgb(204, 204, 204)" stroke-width="1px"></line><line x1="50" y1="125.86875403786144" x2="45" y2="125.86875403786144" style="visibility: inherit;" fill="rgb(0, 0, 0)" stroke="rgb(204, 204, 204)" stroke-width="1px"></line><line x1="50" y1="110.7488350042554" x2="45" y2="110.7488350042554" style="visibility: inherit;" fill="rgb(0, 0, 0)" stroke="rgb(204, 204, 204)" stroke-width="1px"></line><line x1="50" y1="95.62891597064937" x2="45" y2="95.62891597064937" style="visibility: inherit;" fill="rgb(0, 0, 0)" stroke="rgb(204, 204, 204)" stroke-width="1px"></line><line x1="50" y1="80.50899693704335" x2="45" y2="80.50899693704335" style="visibility: inherit;" fill="rgb(0, 0, 0)" stroke="rgb(204, 204, 204)" stroke-width="1px"></line><line x1="50" y1="65.38907790343733" x2="45" y2="65.38907790343733" style="visibility: inherit;" fill="rgb(0, 0, 0)" stroke="rgb(204, 204, 204)" stroke-width="1px"></line><line x1="50" y1="50.2691588698313" x2="45" y2="50.2691588698313" style="visibility: inherit;" fill="rgb(0, 0, 0)" stroke="rgb(204, 204, 204)" stroke-width="1px"></line><line x1="50" y1="35.14923983622526" x2="45" y2="35.14923983622526" style="visibility: inherit;" fill="rgb(0, 0, 0)" stroke="rgb(204, 204, 204)" stroke-width="1px"></line><line x1="50" y1="20.029320802619253" x2="45" y2="20.029320802619253" style="visibility: inherit;" fill="rgb(0, 0, 0)" stroke="rgb(204, 204, 204)" stroke-width="1px"></line><line x1="50" y1="4.909401769013215" x2="45" y2="4.909401769013215" style="visibility: inherit;" fill="rgb(0, 0, 0)" stroke="rgb(204, 204, 204)" stroke-width="1px"></line></g><g transform="translate(40, 0)"><text x="0" y="171.22851113867952" dx="0em" dy="0.3em" style="text-anchor: end; visibility: inherit; font-family: &quot;Helvetica Neue&quot;, sans-serif; font-size: 12px; font-weight: 200;" fill="rgb(50, 49, 63)" stroke="none" stroke-width="1px">-1</text><text x="0" y="156.10859210507348" dx="0em" dy="0.3em" style="text-anchor: end; visibility: hidden; font-family: &quot;Helvetica Neue&quot;, sans-serif; font-size: 12px; font-weight: 200;" fill="rgb(50, 49, 63)" stroke="none" stroke-width="1px">-0.5</text><text x="0" y="140.98867307146745" dx="0em" dy="0.3em" style="text-anchor: end; visibility: inherit; font-family: &quot;Helvetica Neue&quot;, sans-serif; font-size: 12px; font-weight: 200;" fill="rgb(50, 49, 63)" stroke="none" stroke-width="1px">0</text><text x="0" y="125.86875403786144" dx="0em" dy="0.3em" style="text-anchor: end; visibility: hidden; font-family: &quot;Helvetica Neue&quot;, sans-serif; font-size: 12px; font-weight: 200;" fill="rgb(50, 49, 63)" stroke="none" stroke-width="1px">0.5</text><text x="0" y="110.7488350042554" dx="0em" dy="0.3em" style="text-anchor: end; visibility: inherit; font-family: &quot;Helvetica Neue&quot;, sans-serif; font-size: 12px; font-weight: 200;" fill="rgb(50, 49, 63)" stroke="none" stroke-width="1px">1</text><text x="0" y="95.62891597064937" dx="0em" dy="0.3em" style="text-anchor: end; visibility: hidden; font-family: &quot;Helvetica Neue&quot;, sans-serif; font-size: 12px; font-weight: 200;" fill="rgb(50, 49, 63)" stroke="none" stroke-width="1px">1.5</text><text x="0" y="80.50899693704335" dx="0em" dy="0.3em" style="text-anchor: end; visibility: inherit; font-family: &quot;Helvetica Neue&quot;, sans-serif; font-size: 12px; font-weight: 200;" fill="rgb(50, 49, 63)" stroke="none" stroke-width="1px">2</text><text x="0" y="65.38907790343733" dx="0em" dy="0.3em" style="text-anchor: end; visibility: hidden; font-family: &quot;Helvetica Neue&quot;, sans-serif; font-size: 12px; font-weight: 200;" fill="rgb(50, 49, 63)" stroke="none" stroke-width="1px">2.5</text><text x="0" y="50.2691588698313" dx="0em" dy="0.3em" style="text-anchor: end; visibility: inherit; font-family: &quot;Helvetica Neue&quot;, sans-serif; font-size: 12px; font-weight: 200;" fill="rgb(50, 49, 63)" stroke="none" stroke-width="1px">3</text><text x="0" y="35.14923983622526" dx="0em" dy="0.3em" style="text-anchor: end; visibility: hidden; font-family: &quot;Helvetica Neue&quot;, sans-serif; font-size: 12px; font-weight: 200;" fill="rgb(50, 49, 63)" stroke="none" stroke-width="1px">3.5</text><text x="0" y="20.029320802619253" dx="0em" dy="0.3em" style="text-anchor: end; visibility: inherit; font-family: &quot;Helvetica Neue&quot;, sans-serif; font-size: 12px; font-weight: 200;" fill="rgb(50, 49, 63)" stroke="none" stroke-width="1px">4</text><text x="0" y="4.909401769013215" dx="0em" dy="0.3em" style="text-anchor: end; visibility: hidden; font-family: &quot;Helvetica Neue&quot;, sans-serif; font-size: 12px; font-weight: 200;" fill="rgb(50, 49, 63)" stroke="none" stroke-width="1px">4.5</text></g><line x1="50" y1="0" x2="50" y2="178" fill="rgb(0, 0, 0)" stroke="rgb(204, 204, 204)" stroke-width="1px"></line></g></g><g transform="translate(50, 0)" clip-path="url(#clip_0)"><clipPath id="clip_0"><rect width="280" height="178"></rect></clipPath><g><g><g><line x1="5.131082271657483" y1="0" x2="5.131082271657483" y2="178" fill="rgb(0, 0, 0)" stroke="rgb(60, 60, 60)" stroke-width="1px" opacity="0.25"></line><line x1="35.40180883536311" y1="0" x2="35.40180883536311" y2="178" fill="rgb(0, 0, 0)" stroke="rgb(60, 60, 60)" stroke-width="1px" opacity="0.25"></line><line x1="65.67253539906875" y1="0" x2="65.67253539906875" y2="178" fill="rgb(0, 0, 0)" stroke="rgb(60, 60, 60)" stroke-width="1px" opacity="0.25"></line><line x1="95.94326196277439" y1="0" x2="95.94326196277439" y2="178" fill="rgb(0, 0, 0)" stroke="rgb(60, 60, 60)" stroke-width="1px" opacity="0.25"></line><line x1="126.21398852648001" y1="0" x2="126.21398852648001" y2="178" fill="rgb(0, 0, 0)" stroke="rgb(60, 60, 60)" stroke-width="1px" opacity="0.25"></line><line x1="156.48471509018563" y1="0" x2="156.48471509018563" y2="178" fill="rgb(0, 0, 0)" stroke="rgb(60, 60, 60)" stroke-width="1px" opacity="0.25"></line><line x1="186.75544165389127" y1="0" x2="186.75544165389127" y2="178" fill="rgb(0, 0, 0)" stroke="rgb(60, 60, 60)" stroke-width="1px" opacity="0.25"></line><line x1="217.02616821759688" y1="0" x2="217.02616821759688" y2="178" fill="rgb(0, 0, 0)" stroke="rgb(60, 60, 60)" stroke-width="1px" opacity="0.25"></line><line x1="247.29689478130254" y1="0" x2="247.29689478130254" y2="178" fill="rgb(0, 0, 0)" stroke="rgb(60, 60, 60)" stroke-width="1px" opacity="0.25"></line><line x1="277.56762134500815" y1="0" x2="277.56762134500815" y2="178" fill="rgb(0, 0, 0)" stroke="rgb(60, 60, 60)" stroke-width="1px" opacity="0.25"></line></g><g><line x1="0" y1="171.22851113867952" x2="280" y2="171.22851113867952" fill="rgb(0, 0, 0)" stroke="rgb(60, 60, 60)" stroke-width="1px" opacity="0.25"></line><line x1="0" y1="156.10859210507348" x2="280" y2="156.10859210507348" fill="rgb(0, 0, 0)" stroke="rgb(60, 60, 60)" stroke-width="1px" opacity="0.25"></line><line x1="0" y1="140.98867307146745" x2="280" y2="140.98867307146745" fill="rgb(0, 0, 0)" stroke="rgb(60, 60, 60)" stroke-width="1px" opacity="0.25"></line><line x1="0" y1="125.86875403786144" x2="280" y2="125.86875403786144" fill="rgb(0, 0, 0)" stroke="rgb(60, 60, 60)" stroke-width="1px" opacity="0.25"></line><line x1="0" y1="110.7488350042554" x2="280" y2="110.7488350042554" fill="rgb(0, 0, 0)" stroke="rgb(60, 60, 60)" stroke-width="1px" opacity="0.25"></line><line x1="0" y1="95.62891597064937" x2="280" y2="95.62891597064937" fill="rgb(0, 0, 0)" stroke="rgb(60, 60, 60)" stroke-width="1px" opacity="0.25"></line><line x1="0" y1="80.50899693704335" x2="280" y2="80.50899693704335" fill="rgb(0, 0, 0)" stroke="rgb(60, 60, 60)" stroke-width="1px" opacity="0.25"></line><line x1="0" y1="65.38907790343733" x2="280" y2="65.38907790343733" fill="rgb(0, 0, 0)" stroke="rgb(60, 60, 60)" stroke-width="1px" opacity="0.25"></line><line x1="0" y1="50.2691588698313" x2="280" y2="50.2691588698313" fill="rgb(0, 0, 0)" stroke="rgb(60, 60, 60)" stroke-width="1px" opacity="0.25"></line><line x1="0" y1="35.14923983622526" x2="280" y2="35.14923983622526" fill="rgb(0, 0, 0)" stroke="rgb(60, 60, 60)" stroke-width="1px" opacity="0.25"></line><line x1="0" y1="20.029320802619253" x2="280" y2="20.029320802619253" fill="rgb(0, 0, 0)" stroke="rgb(60, 60, 60)" stroke-width="1px" opacity="0.25"></line><line x1="0" y1="4.909401769013215" x2="280" y2="4.909401769013215" fill="rgb(0, 0, 0)" stroke="rgb(60, 60, 60)" stroke-width="1px" opacity="0.25"></line></g></g></g><g><g><line x1="0" y1="140.98867307146745" x2="280" y2="140.98867307146745" fill="rgb(0, 0, 0)" stroke="rgb(153, 153, 153)" stroke-width="1.5px"></line></g></g><g><g><line x1="126.21398852648001" y1="0" x2="126.21398852648001" y2="178" fill="rgb(0, 0, 0)" stroke="rgb(153, 153, 153)" stroke-width="1.5px"></line></g></g><g><g><g><g><g><path stroke="rgb(255, 112, 67)" stroke-width="2px" d="M127.57617122184676,71.0505184195373L129.54376844848764,71.05492987872515L129.8464757141247,71.05756042197143L130.6032438782173,71.06040079848944L131.81407294076556,71.0606769220911L132.1167802064026,70.95688809758673L133.63031653458788,71.00759520886784L138.62498641759933,71.11527891338552L138.77634005041784,71.14843943320489L139.5331082145105,71.24553097589053L144.52777809752192,71.36937788958754L144.83048536315897,71.4109092581505L146.49537532416278,71.42664222861495L146.94943622261837,71.45527334099349L147.55485075389248,71.60898220700446L148.00891165234808,71.5365164651385L150.73327704308156,72.43588309969869L150.8846306759001,72.96864510349678L151.4900452071742,73.49815597356806L153.91170333227066,75.05035583358593L155.42523966045593,78.89758004602744L159.81449501219325,83.15697000738027L159.81449501219325,85.866374685234L161.47938497319706,86.07495456161668L161.6307386060156,87.62954198225154L162.8415676685638,88.16985762086045L163.14427493420087,88.92602991748458L163.14427493420087,91.25047670832105L163.9010430982935,92.15583166535855L168.89571298130494,93.27898299996433L171.0146638407643,94.56220339122957L172.3768465361311,98.14677179187505L172.83090743458666,99.54106389025529L172.9822610674052,99.42749350214714L175.55527282532017,101.15660230582006L176.7661018878684,99.293282314275L177.3715164191425,101.49600828006812L177.52287005196104,102.41083719747665L177.8255773175981,98.92526828711601L177.97693095041663,98.82000246431458L178.8850527473278,100.09268796837688L179.64182091142044,102.23849423893263L183.12295446624657,102.33866372533508L183.7283689975207,104.42360193331635L184.3337835287948,106.25140311573523L186.15002712261716,104.35231316968924L186.45273438825419,103.85440342755251L187.20950255234686,102.54548515812435L187.5122098179839,100.82105124303709L187.66356345080243,101.89693390582634L188.72303888053213,105.09014742396083L188.87439251335064,107.17734000620838L189.32845341180624,102.82852595000193L189.47980704462478,98.6087533653782L190.08522157589888,102.66417043514032L190.53928247435445,103.91386267620406L190.690636107173,101.43068243206132L192.8095869666324,103.94404255164866L198.40967138091793,106.19833584660695L198.56102501373647,108.84063251347642L201.28539040446995,107.76036877066983L201.4367440372885,110.20507041246422L202.79892673265525,101.50525643200292L203.5556948967479,105.5409414282965L203.7070485295664,105.855526755807L204.161109428022,107.87130301594695L204.161109428022,110.40921873909028L204.61517032647757,109.00901011616087L205.97735302184435,110.54243058942633L206.28006028748138,108.524786667648L207.03682845157402,110.64685036086637L210.82066927203724,111.89912698097679L211.12337653767426,110.65126687290788L211.57743743612988,112.47977591401812L212.03149833458545,112.84273522269696L212.48555923304104,111.68965531764967L213.2423273971337,111.5811019538979L213.69638829558926,110.90218536919089L214.15044919404485,112.58393522377558L218.23699728014512,113.79082038083973L218.69105817860068,113.82482874776807L218.84241181141923,114.36320522593434L220.20459450678595,113.09122915594125L221.26406993651568,113.67518040410006L222.32354536624538,114.0647353647052L225.35061802261592,114.07678976816648L226.7128007179827,111.16701815607924L228.22633704616797,109.95213806321418L228.68039794462356,111.28282630532041L229.28581247589764,113.13931246115153L231.10205606972,111.12921045027986L231.25340970253853,113.45280829824038L232.1615314994497,114.07802380563751L232.46423876508678,113.75359355509502L232.6155923979053,114.75942043131167L232.7669460307238,113.5568566940982L236.55078685118704,111.56687009745671L237.0048477496426,114.26707747055951L237.15620138246115,115.9756134845803L238.82109134346496,114.58202331362544L239.88056677319466,112.0934085164381L240.63733493728728,110.12540909671254L243.05899306238373,108.42881604908759L243.81576122647638,103.80988386757066L244.572529390569,106.0520445559995L245.0265902890246,111.18547205862524L247.59960204693957,108.21203396066896L247.90230931257665,111.14226385026242L249.86990653921748,111.20696381554916L251.08073560176572,114.29302910407552L251.23208923458427,115.78906951917305L252.44291829713248,116.92334048073684L252.74562556276953,117.84614164392273L254.1078082581363,113.33887956377389L256.8321736488698,116.42546849357399L257.4375881801439,115.90947817180822L259.1024781411477,115.65041992486718L260.1619535708774,117.93109962460935L260.91872173497006,117.50046193680244L261.37278263342563,118.01547309752064L261.52413626624417,118.86982014302998L261.8268435318812,118.17518998106212L262.2809044303368,117.85073908341316L263.03767259442947,116.89033223545152L264.2485016569777,115.96537466961544L264.3998552897962,116.76081673064158L264.55120892261476,117.99084723479119L265.15662345388887,119.06792082767524L265.30797708670735,117.18506632872379L267.5782815789853,119.7132220345134L268.03234247744086,120.77646424651911L269.9999397040817,119.02392969120956L271.66482966508556,119.40095101375948L272.72430509481524,121.25600107036169L273.1783659932708,119.06548028652068L273.7837805245449,119.03033416886026L274.84325595427464,119.94073254947992L275.1459632199117,120.71349004869475L275.6000241183673,116.90122845780394L275.7513777511858,112.76984947941465L278.9298040403749,115.6885616397603L280.29198673574166,116.20999631947896" style="fill: none;" fill="none"></path></g></g></g></g><g opacity="0.2"><g><g><g><path stroke="rgb(255, 112, 67)" stroke-width="2px" d="M127.57617122184676,71.0505184195373L129.54376844848764,71.05757675423783L129.8464757141247,71.06008574348789L130.6032438782173,71.06374108127457L131.81407294076556,71.06103742906548L132.1167802064026,70.81331078932038L133.63031653458788,71.08010718931361L138.62498641759933,71.27228278833589L138.77634005041784,71.19734475883908L139.5331082145105,71.38970060134196L144.52777809752192,71.55402497774098L144.83048536315897,71.47298029912122L146.49537532416278,71.45019031343337L146.94943622261837,71.49816391823151L147.55485075389248,71.83936482701897L148.00891165234808,71.42786896079511L150.73327704308156,73.78455246972054L150.8846306759001,73.76765284097891L151.4900452071742,74.2923416130234L153.91170333227066,77.37851374639726L155.42523966045593,84.66820537377058L159.81449501219325,89.5459147923685L159.81449501219325,89.93042820954561L161.47938497319706,86.3878219053632L161.6307386060156,89.96141206386181L162.8415676685638,88.98032877457447L163.14427493420087,90.06028642758312L163.14427493420087,94.73714332600238L163.9010430982935,93.51386326695496L168.89571298130494,94.96370938112432L171.0146638407643,96.48703355259758L172.3768465361311,103.52362367963413L172.83090743458666,101.63250187137518L172.9822610674052,99.25713792811973L175.55527282532017,103.75026543701792L176.7661018878684,96.49830237500508L177.3715164191425,104.80009719467806L177.52287005196104,103.78308056509707L177.8255773175981,93.69691494098895L177.97693095041663,98.66210373046425L178.8850527473278,102.00171622191843L179.64182091142044,105.45720364218468L183.12295446624657,102.48891795486647L183.7283689975207,107.55100924438526L184.3337835287948,108.99310488888857L186.15002712261716,101.50367825091634L186.45273438825419,103.10753881439406L187.20950255234686,100.58210775405554L187.5122098179839,98.2344003704643L187.66356345080243,103.51075789998846L188.72303888053213,109.87996770112383L188.87439251335064,110.30812887956452L189.32845341180624,96.30530486571125L189.47980704462478,92.27909448845368L190.08522157589888,108.74729603977713L190.53928247435445,105.78840103779848L190.690636107173,97.70591206584864L192.8095869666324,107.71408273102887L198.40967138091793,109.57977578904391L198.56102501373647,112.8040775137803L201.28539040446995,106.13997315646L201.4367440372885,113.87212287515568L202.79892673265525,88.45553546131123L203.5556948967479,111.59446892273684L203.7070485295664,106.32740474707272L204.161109428022,110.89496740615684L204.161109428022,114.21609232380524L204.61517032647757,106.9086971817668L205.97735302184435,112.84256129932452L206.28006028748138,105.49832078498056L207.03682845157402,113.82994590069384L210.82066927203724,113.77754191114241L211.12337653767426,108.77947671080454L211.57743743612988,115.22253947568348L212.03149833458545,113.38717418571522L212.48555923304104,109.9600354600787L213.2423273971337,111.41827190827028L213.69638829558926,109.88381049213037L214.15044919404485,115.10656000565265L218.23699728014512,115.60114811643592L218.69105817860068,113.87584129816058L218.84241181141923,115.17076994318379L220.20459450678595,111.18326505095158L221.26406993651568,114.55110727633829L222.32354536624538,114.64906780561292L225.35061802261592,114.09487137335837L226.7128007179827,106.80236073794839L228.22633704616797,108.12981792391656L228.68039794462356,113.27885866847977L229.28581247589764,115.9240416948982L231.10205606972,108.11405743397236L231.25340970253853,116.93820507018118L232.1615314994497,115.01584706673319L232.46423876508678,113.2669481792813L232.6155923979053,116.26816074563665L232.7669460307238,111.753011088278L236.55078685118704,108.58189020249446L237.0048477496426,118.31738853021372L237.15620138246115,118.53841750561142L238.82109134346496,112.49163805719317L239.88056677319466,108.36048632065709L240.63733493728728,107.17340996712421L243.05899306238373,105.88392647765012L243.81576122647638,96.88148559529532L244.572529390569,109.41528558864273L245.0265902890246,118.88561331256383L247.59960204693957,103.75187681373454L247.90230931257665,115.53760868465264L249.86990653921748,111.30401376347925L251.08073560176572,118.92212703686502L251.23208923458427,118.03313014181937L252.44291829713248,118.62474692308255L252.74562556276953,119.23034338870156L254.1078082581363,106.57798644355063L256.8321736488698,121.05535188827417L257.4375881801439,115.13549268915955L259.1024781411477,115.26183255445562L260.1619535708774,121.3521191742226L260.91872173497006,116.85450540509211L261.37278263342563,118.78798983859792L261.52413626624417,120.15134071129401L261.8268435318812,117.13324473811029L262.2809044303368,117.36406273693973L263.03767259442947,115.44972196350908L264.2485016569777,114.5779383208613L264.3998552897962,117.9539798221808L264.55120892261476,119.83589299101558L265.15662345388887,120.68353121700136L265.30797708670735,114.36078458029664L267.5782815789853,123.50545559319775L268.03234247744086,122.37132756452775L269.9999397040817,116.39512785824525L271.66482966508556,119.96648299758435L272.72430509481524,124.03857615526502L273.1783659932708,115.77969911075918L273.7837805245449,118.97761499236964L274.84325595427464,121.3063301204094L275.1459632199117,121.87262629751703L275.6000241183673,111.18283607146773L275.7513777511858,106.57278101183071L278.9298040403749,120.06662988027875L280.29198673574166,116.992148339057" style="fill: none;" fill="none"></path></g></g></g></g></g></g><g transform="translate(50, 178)" clip-path="url(#clip_1)"><clipPath id="clip_1"><rect width="280" height="22"></rect></clipPath><g><g><line x1="5.131082271657483" y1="0" x2="5.131082271657483" y2="5" style="visibility: inherit;" fill="rgb(0, 0, 0)" stroke="rgb(204, 204, 204)" stroke-width="1px"></line><line x1="35.40180883536311" y1="0" x2="35.40180883536311" y2="5" style="visibility: inherit;" fill="rgb(0, 0, 0)" stroke="rgb(204, 204, 204)" stroke-width="1px"></line><line x1="65.67253539906875" y1="0" x2="65.67253539906875" y2="5" style="visibility: inherit;" fill="rgb(0, 0, 0)" stroke="rgb(204, 204, 204)" stroke-width="1px"></line><line x1="95.94326196277439" y1="0" x2="95.94326196277439" y2="5" style="visibility: inherit;" fill="rgb(0, 0, 0)" stroke="rgb(204, 204, 204)" stroke-width="1px"></line><line x1="126.21398852648001" y1="0" x2="126.21398852648001" y2="5" style="visibility: inherit;" fill="rgb(0, 0, 0)" stroke="rgb(204, 204, 204)" stroke-width="1px"></line><line x1="156.48471509018563" y1="0" x2="156.48471509018563" y2="5" style="visibility: inherit;" fill="rgb(0, 0, 0)" stroke="rgb(204, 204, 204)" stroke-width="1px"></line><line x1="186.75544165389127" y1="0" x2="186.75544165389127" y2="5" style="visibility: inherit;" fill="rgb(0, 0, 0)" stroke="rgb(204, 204, 204)" stroke-width="1px"></line><line x1="217.02616821759688" y1="0" x2="217.02616821759688" y2="5" style="visibility: inherit;" fill="rgb(0, 0, 0)" stroke="rgb(204, 204, 204)" stroke-width="1px"></line><line x1="247.29689478130254" y1="0" x2="247.29689478130254" y2="5" style="visibility: inherit;" fill="rgb(0, 0, 0)" stroke="rgb(204, 204, 204)" stroke-width="1px"></line><line x1="277.56762134500815" y1="0" x2="277.56762134500815" y2="5" style="visibility: inherit;" fill="rgb(0, 0, 0)" stroke="rgb(204, 204, 204)" stroke-width="1px"></line></g><g transform="translate(0, 8)"><text x="5.131082271657483" y="0" dx="0em" dy="0.95em" style="text-anchor: middle; visibility: hidden; font-family: &quot;Helvetica Neue&quot;, sans-serif; font-size: 12px; font-weight: 200;" fill="rgb(50, 49, 63)" stroke="none" stroke-width="1px">-800</text><text x="35.40180883536311" y="0" dx="0em" dy="0.95em" style="text-anchor: middle; visibility: inherit; font-family: &quot;Helvetica Neue&quot;, sans-serif; font-size: 12px; font-weight: 200;" fill="rgb(50, 49, 63)" stroke="none" stroke-width="1px">-600</text><text x="65.67253539906875" y="0" dx="0em" dy="0.95em" style="text-anchor: middle; visibility: inherit; font-family: &quot;Helvetica Neue&quot;, sans-serif; font-size: 12px; font-weight: 200;" fill="rgb(50, 49, 63)" stroke="none" stroke-width="1px">-400</text><text x="95.94326196277439" y="0" dx="0em" dy="0.95em" style="text-anchor: middle; visibility: inherit; font-family: &quot;Helvetica Neue&quot;, sans-serif; font-size: 12px; font-weight: 200;" fill="rgb(50, 49, 63)" stroke="none" stroke-width="1px">-200</text><text x="126.21398852648001" y="0" dx="0em" dy="0.95em" style="text-anchor: middle; visibility: inherit; font-family: &quot;Helvetica Neue&quot;, sans-serif; font-size: 12px; font-weight: 200;" fill="rgb(50, 49, 63)" stroke="none" stroke-width="1px">0</text><text x="156.48471509018563" y="0" dx="0em" dy="0.95em" style="text-anchor: middle; visibility: inherit; font-family: &quot;Helvetica Neue&quot;, sans-serif; font-size: 12px; font-weight: 200;" fill="rgb(50, 49, 63)" stroke="none" stroke-width="1px">200</text><text x="186.75544165389127" y="0" dx="0em" dy="0.95em" style="text-anchor: middle; visibility: inherit; font-family: &quot;Helvetica Neue&quot;, sans-serif; font-size: 12px; font-weight: 200;" fill="rgb(50, 49, 63)" stroke="none" stroke-width="1px">400</text><text x="217.02616821759688" y="0" dx="0em" dy="0.95em" style="text-anchor: middle; visibility: inherit; font-family: &quot;Helvetica Neue&quot;, sans-serif; font-size: 12px; font-weight: 200;" fill="rgb(50, 49, 63)" stroke="none" stroke-width="1px">600</text><text x="247.29689478130254" y="0" dx="0em" dy="0.95em" style="text-anchor: middle; visibility: inherit; font-family: &quot;Helvetica Neue&quot;, sans-serif; font-size: 12px; font-weight: 200;" fill="rgb(50, 49, 63)" stroke="none" stroke-width="1px">800</text><text x="277.56762134500815" y="0" dx="0em" dy="0.95em" style="text-anchor: middle; visibility: hidden; font-family: &quot;Helvetica Neue&quot;, sans-serif; font-size: 12px; font-weight: 200;" fill="rgb(50, 49, 63)" stroke="none" stroke-width="1px">1k</text></g><line x1="0" y1="0" x2="280" y2="0" fill="rgb(0, 0, 0)" stroke="rgb(204, 204, 204)" stroke-width="1px"></line></g></g></g></g></svg>